<svg xmlns="http://www.w3.org/2000/svg" xmlns:xlink="http://www.w3.org/1999/xlink" width="500" zoomAndPan="magnify" viewBox="0 0 375 60" height="80" preserveAspectRatio="xMidYMid meet" version="1.0"><defs><g/><clipPath id="e45bc0e7d7"><path d="M 0.320312 0 L 338 0 L 338 47 L 0.320312 47 Z M 0.320312 0 " clip-rule="nonzero"/></clipPath><clipPath id="0a7bddf014"><rect x="0" width="338" y="0" height="47"/></clipPath><clipPath id="5a9b0c6523"><path d="M 10 40 L 363 40 L 363 55.199219 L 10 55.199219 Z M 10 40 " clip-rule="nonzero"/></clipPath><clipPath id="ff892c441b"><rect x="0" width="353" y="0" height="16"/></clipPath><clipPath id="b01ca0fbbd"><path d="M 334 18 L 370.640625 18 L 370.640625 40 L 334 40 Z M 334 18 " clip-rule="nonzero"/></clipPath><clipPath id="d0fe515d74"><rect x="0" width="37" y="0" height="22"/></clipPath><clipPath id="93000c85e3"><rect x="0" width="371" y="0" height="56"/></clipPath></defs><g transform="matrix(1, 0, 0, 1, 4, -0.000000000000001479)"><g clip-path="url(#93000c85e3)"><g clip-path="url(#e45bc0e7d7)"><g transform="matrix(1, 0, 0, 1, 0, -0.000000000000001479)"><g clip-path="url(#0a7bddf014)"><g fill="#10113c" fill-opacity="1"><g transform="translate(0.972507, 34.956647)"><g><path d="M 3.296875 0 L 3.296875 -26.234375 L 8.859375 -26.234375 L 8.859375 0 Z M 3.296875 0 "/></g></g></g><g fill="#10113c" fill-opacity="1"><g transform="translate(16.33073, 34.956647)"><g><path d="M 26.578125 0 L 19.5 0 L 8.09375 -19.84375 L 7.9375 -19.84375 C 7.976562 -19.019531 8.015625 -18.1875 8.046875 -17.34375 C 8.085938 -16.507812 8.125 -15.675781 8.15625 -14.84375 C 8.195312 -14.019531 8.234375 -13.1875 8.265625 -12.34375 L 8.265625 0 L 3.296875 0 L 3.296875 -26.234375 L 10.3125 -26.234375 L 21.71875 -6.578125 L 21.84375 -6.578125 C 21.8125 -7.398438 21.773438 -8.207031 21.734375 -9 C 21.703125 -9.800781 21.671875 -10.601562 21.640625 -11.40625 C 21.617188 -12.207031 21.59375 -13.007812 21.5625 -13.8125 L 21.5625 -26.234375 L 26.578125 -26.234375 Z M 26.578125 0 "/></g></g></g><g fill="#10113c" fill-opacity="1"><g transform="translate(49.392562, 34.956647)"><g><path d="M 27.109375 -13.15625 C 27.109375 -11.132812 26.859375 -9.296875 26.359375 -7.640625 C 25.859375 -5.984375 25.09375 -4.554688 24.0625 -3.359375 C 23.039062 -2.160156 21.75 -1.238281 20.1875 -0.59375 C 18.625 0.0390625 16.769531 0.359375 14.625 0.359375 C 12.476562 0.359375 10.625 0.0390625 9.0625 -0.59375 C 7.5 -1.238281 6.203125 -2.160156 5.171875 -3.359375 C 4.148438 -4.554688 3.390625 -5.984375 2.890625 -7.640625 C 2.390625 -9.304688 2.140625 -11.15625 2.140625 -13.1875 C 2.140625 -15.90625 2.582031 -18.269531 3.46875 -20.28125 C 4.363281 -22.300781 5.738281 -23.863281 7.59375 -24.96875 C 9.445312 -26.082031 11.800781 -26.640625 14.65625 -26.640625 C 17.507812 -26.640625 19.851562 -26.082031 21.6875 -24.96875 C 23.519531 -23.863281 24.878906 -22.300781 25.765625 -20.28125 C 26.660156 -18.257812 27.109375 -15.882812 27.109375 -13.15625 Z M 7.96875 -13.15625 C 7.96875 -11.320312 8.195312 -9.742188 8.65625 -8.421875 C 9.113281 -7.097656 9.832031 -6.082031 10.8125 -5.375 C 11.800781 -4.664062 13.070312 -4.3125 14.625 -4.3125 C 16.207031 -4.3125 17.488281 -4.664062 18.46875 -5.375 C 19.445312 -6.082031 20.160156 -7.097656 20.609375 -8.421875 C 21.054688 -9.742188 21.28125 -11.320312 21.28125 -13.15625 C 21.28125 -15.90625 20.765625 -18.066406 19.734375 -19.640625 C 18.710938 -21.222656 17.019531 -22.015625 14.65625 -22.015625 C 13.09375 -22.015625 11.816406 -21.65625 10.828125 -20.9375 C 9.835938 -20.226562 9.113281 -19.210938 8.65625 -17.890625 C 8.195312 -16.578125 7.96875 -15 7.96875 -13.15625 Z M 7.96875 -13.15625 "/></g></g></g><g fill="#10113c" fill-opacity="1"><g transform="translate(81.826606, 34.956647)"><g><path d="M 23.890625 -26.234375 L 14.96875 0 L 8.90625 0 L 0 -26.234375 L 5.609375 -26.234375 L 10.546875 -10.625 C 10.628906 -10.363281 10.765625 -9.867188 10.953125 -9.140625 C 11.148438 -8.421875 11.347656 -7.65625 11.546875 -6.84375 C 11.742188 -6.039062 11.878906 -5.375 11.953125 -4.84375 C 12.023438 -5.375 12.148438 -6.039062 12.328125 -6.84375 C 12.515625 -7.644531 12.703125 -8.40625 12.890625 -9.125 C 13.078125 -9.84375 13.210938 -10.34375 13.296875 -10.625 L 18.265625 -26.234375 Z M 23.890625 -26.234375 "/></g></g></g><g fill="#10113c" fill-opacity="1"><g transform="translate(108.897551, 34.956647)"><g><path d="M 19.359375 0 L 17.453125 -6.25 L 7.890625 -6.25 L 6 0 L 0 0 L 9.265625 -26.34375 L 16.0625 -26.34375 L 25.359375 0 Z M 16.125 -10.90625 L 14.234375 -17.015625 C 14.109375 -17.421875 13.945312 -17.941406 13.75 -18.578125 C 13.550781 -19.222656 13.351562 -19.875 13.15625 -20.53125 C 12.957031 -21.195312 12.800781 -21.773438 12.6875 -22.265625 C 12.5625 -21.773438 12.394531 -21.164062 12.1875 -20.4375 C 11.976562 -19.71875 11.78125 -19.035156 11.59375 -18.390625 C 11.40625 -17.742188 11.265625 -17.285156 11.171875 -17.015625 L 9.296875 -10.90625 Z M 16.125 -10.90625 "/></g></g></g><g fill="#10113c" fill-opacity="1"><g transform="translate(137.439313, 34.956647)"><g><path d="M 18.78125 -7.28125 C 18.78125 -5.726562 18.40625 -4.375 17.65625 -3.21875 C 16.90625 -2.070312 15.804688 -1.1875 14.359375 -0.5625 C 12.921875 0.0507812 11.171875 0.359375 9.109375 0.359375 C 8.203125 0.359375 7.316406 0.296875 6.453125 0.171875 C 5.585938 0.0546875 4.753906 -0.113281 3.953125 -0.34375 C 3.160156 -0.582031 2.40625 -0.875 1.6875 -1.21875 L 1.6875 -6.390625 C 2.925781 -5.835938 4.21875 -5.335938 5.5625 -4.890625 C 6.90625 -4.453125 8.234375 -4.234375 9.546875 -4.234375 C 10.453125 -4.234375 11.179688 -4.351562 11.734375 -4.59375 C 12.296875 -4.832031 12.703125 -5.160156 12.953125 -5.578125 C 13.203125 -5.992188 13.328125 -6.472656 13.328125 -7.015625 C 13.328125 -7.671875 13.101562 -8.234375 12.65625 -8.703125 C 12.21875 -9.171875 11.613281 -9.609375 10.84375 -10.015625 C 10.070312 -10.421875 9.203125 -10.859375 8.234375 -11.328125 C 7.628906 -11.609375 6.96875 -11.953125 6.25 -12.359375 C 5.53125 -12.773438 4.847656 -13.28125 4.203125 -13.875 C 3.554688 -14.476562 3.023438 -15.207031 2.609375 -16.0625 C 2.191406 -16.925781 1.984375 -17.953125 1.984375 -19.140625 C 1.984375 -20.710938 2.34375 -22.050781 3.0625 -23.15625 C 3.78125 -24.269531 4.804688 -25.125 6.140625 -25.71875 C 7.472656 -26.3125 9.050781 -26.609375 10.875 -26.609375 C 12.238281 -26.609375 13.539062 -26.445312 14.78125 -26.125 C 16.019531 -25.8125 17.3125 -25.359375 18.65625 -24.765625 L 16.875 -20.4375 C 15.664062 -20.925781 14.582031 -21.304688 13.625 -21.578125 C 12.664062 -21.847656 11.6875 -21.984375 10.6875 -21.984375 C 10 -21.984375 9.410156 -21.867188 8.921875 -21.640625 C 8.429688 -21.421875 8.054688 -21.109375 7.796875 -20.703125 C 7.546875 -20.304688 7.421875 -19.847656 7.421875 -19.328125 C 7.421875 -18.703125 7.601562 -18.175781 7.96875 -17.75 C 8.34375 -17.332031 8.894531 -16.925781 9.625 -16.53125 C 10.363281 -16.132812 11.28125 -15.671875 12.375 -15.140625 C 13.71875 -14.503906 14.863281 -13.84375 15.8125 -13.15625 C 16.769531 -12.46875 17.503906 -11.660156 18.015625 -10.734375 C 18.523438 -9.804688 18.78125 -8.65625 18.78125 -7.28125 Z M 18.78125 -7.28125 "/></g></g></g><g fill="#10113c" fill-opacity="1"><g transform="translate(160.869089, 34.956647)"><g><path d="M 3.296875 0 L 3.296875 -26.234375 L 8.859375 -26.234375 L 8.859375 0 Z M 3.296875 0 "/></g></g></g><g fill="#00bf63" fill-opacity="1"><g transform="translate(176.243544, 34.956647)"><g><path d="M 27.109375 -13.15625 C 27.109375 -11.132812 26.859375 -9.296875 26.359375 -7.640625 C 25.859375 -5.984375 25.09375 -4.554688 24.0625 -3.359375 C 23.039062 -2.160156 21.75 -1.238281 20.1875 -0.59375 C 18.625 0.0390625 16.769531 0.359375 14.625 0.359375 C 12.476562 0.359375 10.625 0.0390625 9.0625 -0.59375 C 7.5 -1.238281 6.203125 -2.160156 5.171875 -3.359375 C 4.148438 -4.554688 3.390625 -5.984375 2.890625 -7.640625 C 2.390625 -9.304688 2.140625 -11.15625 2.140625 -13.1875 C 2.140625 -15.90625 2.582031 -18.269531 3.46875 -20.28125 C 4.363281 -22.300781 5.738281 -23.863281 7.59375 -24.96875 C 9.445312 -26.082031 11.800781 -26.640625 14.65625 -26.640625 C 17.507812 -26.640625 19.851562 -26.082031 21.6875 -24.96875 C 23.519531 -23.863281 24.878906 -22.300781 25.765625 -20.28125 C 26.660156 -18.257812 27.109375 -15.882812 27.109375 -13.15625 Z M 7.96875 -13.15625 C 7.96875 -11.320312 8.195312 -9.742188 8.65625 -8.421875 C 9.113281 -7.097656 9.832031 -6.082031 10.8125 -5.375 C 11.800781 -4.664062 13.070312 -4.3125 14.625 -4.3125 C 16.207031 -4.3125 17.488281 -4.664062 18.46875 -5.375 C 19.445312 -6.082031 20.160156 -7.097656 20.609375 -8.421875 C 21.054688 -9.742188 21.28125 -11.320312 21.28125 -13.15625 C 21.28125 -15.90625 20.765625 -18.066406 19.734375 -19.640625 C 18.710938 -21.222656 17.019531 -22.015625 14.65625 -22.015625 C 13.09375 -22.015625 11.816406 -21.65625 10.828125 -20.9375 C 9.835938 -20.226562 9.113281 -19.210938 8.65625 -17.890625 C 8.195312 -16.578125 7.96875 -15 7.96875 -13.15625 Z M 7.96875 -13.15625 "/></g></g></g><g fill="#00bf63" fill-opacity="1"><g transform="translate(208.677588, 34.956647)"><g><path d="M 26.578125 0 L 19.5 0 L 8.09375 -19.84375 L 7.9375 -19.84375 C 7.976562 -19.019531 8.015625 -18.1875 8.046875 -17.34375 C 8.085938 -16.507812 8.125 -15.675781 8.15625 -14.84375 C 8.195312 -14.019531 8.234375 -13.1875 8.265625 -12.34375 L 8.265625 0 L 3.296875 0 L 3.296875 -26.234375 L 10.3125 -26.234375 L 21.71875 -6.578125 L 21.84375 -6.578125 C 21.8125 -7.398438 21.773438 -8.207031 21.734375 -9 C 21.703125 -9.800781 21.671875 -10.601562 21.640625 -11.40625 C 21.617188 -12.207031 21.59375 -13.007812 21.5625 -13.8125 L 21.5625 -26.234375 L 26.578125 -26.234375 Z M 26.578125 0 "/></g></g></g><g fill="#00bf63" fill-opacity="1"><g transform="translate(241.73942, 34.956647)"><g><path d="M 3.296875 0 L 3.296875 -26.234375 L 8.859375 -26.234375 L 8.859375 -4.59375 L 19.5 -4.59375 L 19.5 0 Z M 3.296875 0 "/></g></g></g><g fill="#00bf63" fill-opacity="1"><g transform="translate(265.689364, 34.956647)"><g><path d="M 3.296875 0 L 3.296875 -26.234375 L 8.859375 -26.234375 L 8.859375 0 Z M 3.296875 0 "/></g></g></g><g fill="#00bf63" fill-opacity="1"><g transform="translate(281.047587, 34.956647)"><g><path d="M 26.578125 0 L 19.5 0 L 8.09375 -19.84375 L 7.9375 -19.84375 C 7.976562 -19.019531 8.015625 -18.1875 8.046875 -17.34375 C 8.085938 -16.507812 8.125 -15.675781 8.15625 -14.84375 C 8.195312 -14.019531 8.234375 -13.1875 8.265625 -12.34375 L 8.265625 0 L 3.296875 0 L 3.296875 -26.234375 L 10.3125 -26.234375 L 21.71875 -6.578125 L 21.84375 -6.578125 C 21.8125 -7.398438 21.773438 -8.207031 21.734375 -9 C 21.703125 -9.800781 21.671875 -10.601562 21.640625 -11.40625 C 21.617188 -12.207031 21.59375 -13.007812 21.5625 -13.8125 L 21.5625 -26.234375 L 26.578125 -26.234375 Z M 26.578125 0 "/></g></g></g><g fill="#00bf63" fill-opacity="1"><g transform="translate(314.109418, 34.956647)"><g><path d="M 18.40625 0 L 3.296875 0 L 3.296875 -26.234375 L 18.40625 -26.234375 L 18.40625 -21.671875 L 8.859375 -21.671875 L 8.859375 -15.921875 L 17.75 -15.921875 L 17.75 -11.359375 L 8.859375 -11.359375 L 8.859375 -4.59375 L 18.40625 -4.59375 Z M 18.40625 0 "/></g></g></g></g></g></g><g clip-path="url(#5a9b0c6523)"><g transform="matrix(1, 0, 0, 1, 10, 40)"><g clip-path="url(#ff892c441b)"><g fill="#545454" fill-opacity="1"><g transform="translate(1.003081, 11.285278)"><g><path d="M 5.28125 -2 C 5.28125 -1.550781 5.171875 -1.171875 4.953125 -0.859375 C 4.734375 -0.546875 4.421875 -0.304688 4.015625 -0.140625 C 3.617188 0.0234375 3.148438 0.109375 2.609375 0.109375 C 2.328125 0.109375 2.054688 0.09375 1.796875 0.0625 C 1.546875 0.03125 1.3125 -0.0078125 1.09375 -0.0625 C 0.882812 -0.113281 0.703125 -0.175781 0.546875 -0.25 L 0.546875 -1.09375 C 0.796875 -0.976562 1.109375 -0.875 1.484375 -0.78125 C 1.859375 -0.695312 2.25 -0.65625 2.65625 -0.65625 C 3.03125 -0.65625 3.347656 -0.703125 3.609375 -0.796875 C 3.867188 -0.898438 4.066406 -1.046875 4.203125 -1.234375 C 4.335938 -1.429688 4.40625 -1.664062 4.40625 -1.9375 C 4.40625 -2.195312 4.347656 -2.410156 4.234375 -2.578125 C 4.117188 -2.753906 3.929688 -2.910156 3.671875 -3.046875 C 3.410156 -3.191406 3.050781 -3.347656 2.59375 -3.515625 C 2.28125 -3.628906 2 -3.753906 1.75 -3.890625 C 1.507812 -4.023438 1.304688 -4.175781 1.140625 -4.34375 C 0.972656 -4.519531 0.847656 -4.71875 0.765625 -4.9375 C 0.679688 -5.164062 0.640625 -5.425781 0.640625 -5.71875 C 0.640625 -6.125 0.738281 -6.46875 0.9375 -6.75 C 1.144531 -7.039062 1.429688 -7.265625 1.796875 -7.421875 C 2.160156 -7.578125 2.578125 -7.65625 3.046875 -7.65625 C 3.453125 -7.65625 3.820312 -7.613281 4.15625 -7.53125 C 4.5 -7.457031 4.816406 -7.359375 5.109375 -7.234375 L 4.828125 -6.484375 C 4.554688 -6.585938 4.269531 -6.675781 3.96875 -6.75 C 3.664062 -6.832031 3.351562 -6.875 3.03125 -6.875 C 2.707031 -6.875 2.429688 -6.828125 2.203125 -6.734375 C 1.984375 -6.640625 1.816406 -6.503906 1.703125 -6.328125 C 1.585938 -6.160156 1.53125 -5.957031 1.53125 -5.71875 C 1.53125 -5.457031 1.582031 -5.238281 1.6875 -5.0625 C 1.800781 -4.882812 1.976562 -4.726562 2.21875 -4.59375 C 2.46875 -4.457031 2.796875 -4.316406 3.203125 -4.171875 C 3.648438 -4.003906 4.023438 -3.832031 4.328125 -3.65625 C 4.640625 -3.476562 4.875 -3.257812 5.03125 -3 C 5.195312 -2.738281 5.28125 -2.40625 5.28125 -2 Z M 5.28125 -2 "/></g></g></g><g fill="#545454" fill-opacity="1"><g transform="translate(12.892691, 11.285278)"><g><path d="M 5.765625 0 L 4.828125 -2.390625 L 1.8125 -2.390625 L 0.890625 0 L 0 0 L 2.953125 -7.578125 L 3.734375 -7.578125 L 6.671875 0 Z M 4.5625 -3.171875 L 3.6875 -5.546875 C 3.664062 -5.609375 3.628906 -5.707031 3.578125 -5.84375 C 3.535156 -5.988281 3.488281 -6.132812 3.4375 -6.28125 C 3.394531 -6.4375 3.359375 -6.5625 3.328125 -6.65625 C 3.296875 -6.519531 3.257812 -6.378906 3.21875 -6.234375 C 3.175781 -6.097656 3.132812 -5.96875 3.09375 -5.84375 C 3.0625 -5.726562 3.03125 -5.628906 3 -5.546875 L 2.109375 -3.171875 Z M 4.5625 -3.171875 "/></g></g></g><g fill="#545454" fill-opacity="1"><g transform="translate(25.669057, 11.285278)"><g><path d="M 3.34375 0 L 2.46875 0 L 2.46875 -6.765625 L 0.09375 -6.765625 L 0.09375 -7.546875 L 5.703125 -7.546875 L 5.703125 -6.765625 L 3.34375 -6.765625 Z M 3.34375 0 "/></g></g></g><g fill="#545454" fill-opacity="1"><g transform="translate(37.584439, 11.285278)"><g><path d="M 6.734375 -7.546875 L 6.734375 -2.65625 C 6.734375 -2.125 6.625 -1.648438 6.40625 -1.234375 C 6.195312 -0.816406 5.875 -0.488281 5.4375 -0.25 C 5.007812 -0.0078125 4.46875 0.109375 3.8125 0.109375 C 2.875 0.109375 2.160156 -0.140625 1.671875 -0.640625 C 1.191406 -1.148438 0.953125 -1.832031 0.953125 -2.6875 L 0.953125 -7.546875 L 1.84375 -7.546875 L 1.84375 -2.65625 C 1.84375 -2.019531 2.007812 -1.523438 2.34375 -1.171875 C 2.6875 -0.828125 3.191406 -0.65625 3.859375 -0.65625 C 4.316406 -0.65625 4.691406 -0.738281 4.984375 -0.90625 C 5.285156 -1.070312 5.503906 -1.304688 5.640625 -1.609375 C 5.785156 -1.910156 5.859375 -2.257812 5.859375 -2.65625 L 5.859375 -7.546875 Z M 6.734375 -7.546875 "/></g></g></g><g fill="#545454" fill-opacity="1"><g transform="translate(51.381607, 11.285278)"><g/></g></g><g fill="#545454" fill-opacity="1"><g transform="translate(60.224274, 11.285278)"><g><path d="M 3 -7.546875 C 3.976562 -7.546875 4.691406 -7.351562 5.140625 -6.96875 C 5.585938 -6.59375 5.8125 -6.050781 5.8125 -5.34375 C 5.8125 -5.019531 5.757812 -4.710938 5.65625 -4.421875 C 5.550781 -4.140625 5.378906 -3.890625 5.140625 -3.671875 C 4.910156 -3.453125 4.601562 -3.28125 4.21875 -3.15625 C 3.84375 -3.03125 3.378906 -2.96875 2.828125 -2.96875 L 1.90625 -2.96875 L 1.90625 0 L 1.03125 0 L 1.03125 -7.546875 Z M 2.921875 -6.796875 L 1.90625 -6.796875 L 1.90625 -3.71875 L 2.734375 -3.71875 C 3.210938 -3.71875 3.613281 -3.769531 3.9375 -3.875 C 4.257812 -3.976562 4.5 -4.144531 4.65625 -4.375 C 4.820312 -4.601562 4.90625 -4.910156 4.90625 -5.296875 C 4.90625 -5.804688 4.742188 -6.179688 4.421875 -6.421875 C 4.097656 -6.671875 3.597656 -6.796875 2.921875 -6.796875 Z M 2.921875 -6.796875 "/></g></g></g><g fill="#545454" fill-opacity="1"><g transform="translate(72.675834, 11.285278)"><g><path d="M 1.03125 0 L 1.03125 -7.546875 L 1.90625 -7.546875 L 1.90625 -0.78125 L 5.25 -0.78125 L 5.25 0 Z M 1.03125 0 "/></g></g></g><g fill="#545454" fill-opacity="1"><g transform="translate(84.287044, 11.285278)"><g><path d="M 5.765625 0 L 4.828125 -2.390625 L 1.8125 -2.390625 L 0.890625 0 L 0 0 L 2.953125 -7.578125 L 3.734375 -7.578125 L 6.671875 0 Z M 4.5625 -3.171875 L 3.6875 -5.546875 C 3.664062 -5.609375 3.628906 -5.707031 3.578125 -5.84375 C 3.535156 -5.988281 3.488281 -6.132812 3.4375 -6.28125 C 3.394531 -6.4375 3.359375 -6.5625 3.328125 -6.65625 C 3.296875 -6.519531 3.257812 -6.378906 3.21875 -6.234375 C 3.175781 -6.097656 3.132812 -5.96875 3.09375 -5.84375 C 3.0625 -5.726562 3.03125 -5.628906 3 -5.546875 L 2.109375 -3.171875 Z M 4.5625 -3.171875 "/></g></g></g><g fill="#545454" fill-opacity="1"><g transform="translate(97.06341, 11.285278)"><g><path d="M 3.34375 0 L 2.46875 0 L 2.46875 -6.765625 L 0.09375 -6.765625 L 0.09375 -7.546875 L 5.703125 -7.546875 L 5.703125 -6.765625 L 3.34375 -6.765625 Z M 3.34375 0 "/></g></g></g><g fill="#545454" fill-opacity="1"><g transform="translate(108.978792, 11.285278)"><g><path d="M 1.90625 0 L 1.03125 0 L 1.03125 -7.546875 L 5.234375 -7.546875 L 5.234375 -6.765625 L 1.90625 -6.765625 L 1.90625 -4 L 5.03125 -4 L 5.03125 -3.234375 L 1.90625 -3.234375 Z M 1.90625 0 "/></g></g></g><g fill="#545454" fill-opacity="1"><g transform="translate(120.528134, 11.285278)"><g><path d="M 7.578125 -3.78125 C 7.578125 -3.195312 7.5 -2.664062 7.34375 -2.1875 C 7.195312 -1.71875 6.976562 -1.3125 6.6875 -0.96875 C 6.394531 -0.625 6.035156 -0.359375 5.609375 -0.171875 C 5.179688 0.015625 4.679688 0.109375 4.109375 0.109375 C 3.523438 0.109375 3.015625 0.015625 2.578125 -0.171875 C 2.148438 -0.359375 1.789062 -0.625 1.5 -0.96875 C 1.21875 -1.3125 1.003906 -1.722656 0.859375 -2.203125 C 0.710938 -2.679688 0.640625 -3.210938 0.640625 -3.796875 C 0.640625 -4.566406 0.765625 -5.238281 1.015625 -5.8125 C 1.273438 -6.394531 1.660156 -6.847656 2.171875 -7.171875 C 2.691406 -7.492188 3.34375 -7.65625 4.125 -7.65625 C 4.875 -7.65625 5.503906 -7.492188 6.015625 -7.171875 C 6.523438 -6.859375 6.910156 -6.410156 7.171875 -5.828125 C 7.441406 -5.253906 7.578125 -4.570312 7.578125 -3.78125 Z M 1.5625 -3.78125 C 1.5625 -3.144531 1.648438 -2.59375 1.828125 -2.125 C 2.015625 -1.65625 2.296875 -1.289062 2.671875 -1.03125 C 3.054688 -0.78125 3.535156 -0.65625 4.109375 -0.65625 C 4.703125 -0.65625 5.179688 -0.78125 5.546875 -1.03125 C 5.921875 -1.289062 6.195312 -1.65625 6.375 -2.125 C 6.550781 -2.59375 6.640625 -3.144531 6.640625 -3.78125 C 6.640625 -4.75 6.4375 -5.507812 6.03125 -6.0625 C 5.625 -6.613281 4.988281 -6.890625 4.125 -6.890625 C 3.539062 -6.890625 3.0625 -6.757812 2.6875 -6.5 C 2.3125 -6.25 2.03125 -5.894531 1.84375 -5.4375 C 1.65625 -4.976562 1.5625 -4.425781 1.5625 -3.78125 Z M 1.5625 -3.78125 "/></g></g></g><g fill="#545454" fill-opacity="1"><g transform="translate(134.840859, 11.285278)"><g><path d="M 3.0625 -7.546875 C 3.6875 -7.546875 4.195312 -7.46875 4.59375 -7.3125 C 5 -7.15625 5.300781 -6.921875 5.5 -6.609375 C 5.707031 -6.296875 5.8125 -5.898438 5.8125 -5.421875 C 5.8125 -5.015625 5.738281 -4.675781 5.59375 -4.40625 C 5.445312 -4.144531 5.253906 -3.929688 5.015625 -3.765625 C 4.785156 -3.597656 4.539062 -3.472656 4.28125 -3.390625 L 6.34375 0 L 5.328125 0 L 3.46875 -3.140625 L 1.90625 -3.140625 L 1.90625 0 L 1.03125 0 L 1.03125 -7.546875 Z M 3.015625 -6.78125 L 1.90625 -6.78125 L 1.90625 -3.890625 L 3.109375 -3.890625 C 3.722656 -3.890625 4.175781 -4.015625 4.46875 -4.265625 C 4.757812 -4.515625 4.90625 -4.882812 4.90625 -5.375 C 4.90625 -5.882812 4.75 -6.242188 4.4375 -6.453125 C 4.125 -6.671875 3.648438 -6.78125 3.015625 -6.78125 Z M 3.015625 -6.78125 "/></g></g></g><g fill="#545454" fill-opacity="1"><g transform="translate(147.457397, 11.285278)"><g><path d="M 4.34375 0 L 1.8125 -6.671875 L 1.78125 -6.671875 C 1.789062 -6.535156 1.800781 -6.363281 1.8125 -6.15625 C 1.820312 -5.957031 1.828125 -5.738281 1.828125 -5.5 C 1.835938 -5.257812 1.84375 -5.015625 1.84375 -4.765625 L 1.84375 0 L 1.03125 0 L 1.03125 -7.546875 L 2.328125 -7.546875 L 4.71875 -1.265625 L 4.75 -1.265625 L 7.171875 -7.546875 L 8.46875 -7.546875 L 8.46875 0 L 7.609375 0 L 7.609375 -4.828125 C 7.609375 -5.046875 7.609375 -5.269531 7.609375 -5.5 C 7.617188 -5.726562 7.628906 -5.941406 7.640625 -6.140625 C 7.648438 -6.335938 7.660156 -6.507812 7.671875 -6.65625 L 7.625 -6.65625 L 5.0625 0 Z M 4.34375 0 "/></g></g></g><g fill="#545454" fill-opacity="1"><g transform="translate(163.053851, 11.285278)"><g/></g></g><g fill="#545454" fill-opacity="1"><g transform="translate(171.896517, 11.285278)"><g><path d="M 1.03125 -7.546875 L 3.171875 -7.546875 C 4.109375 -7.546875 4.8125 -7.398438 5.28125 -7.109375 C 5.757812 -6.828125 6 -6.347656 6 -5.671875 C 6 -5.378906 5.941406 -5.117188 5.828125 -4.890625 C 5.722656 -4.660156 5.5625 -4.46875 5.34375 -4.3125 C 5.132812 -4.164062 4.875 -4.0625 4.5625 -4 L 4.5625 -3.953125 C 4.882812 -3.898438 5.171875 -3.800781 5.421875 -3.65625 C 5.679688 -3.519531 5.882812 -3.328125 6.03125 -3.078125 C 6.175781 -2.835938 6.25 -2.523438 6.25 -2.140625 C 6.25 -1.679688 6.140625 -1.289062 5.921875 -0.96875 C 5.710938 -0.644531 5.410156 -0.398438 5.015625 -0.234375 C 4.628906 -0.078125 4.164062 0 3.625 0 L 1.03125 0 Z M 1.90625 -4.3125 L 3.359375 -4.3125 C 4.015625 -4.3125 4.46875 -4.414062 4.71875 -4.625 C 4.96875 -4.84375 5.09375 -5.160156 5.09375 -5.578125 C 5.09375 -6.003906 4.941406 -6.3125 4.640625 -6.5 C 4.335938 -6.695312 3.859375 -6.796875 3.203125 -6.796875 L 1.90625 -6.796875 Z M 1.90625 -3.5625 L 1.90625 -0.75 L 3.46875 -0.75 C 4.144531 -0.75 4.617188 -0.878906 4.890625 -1.140625 C 5.171875 -1.398438 5.3125 -1.753906 5.3125 -2.203125 C 5.3125 -2.492188 5.25 -2.738281 5.125 -2.9375 C 5 -3.144531 4.796875 -3.300781 4.515625 -3.40625 C 4.234375 -3.507812 3.863281 -3.5625 3.40625 -3.5625 Z M 1.90625 -3.5625 "/></g></g></g><g fill="#545454" fill-opacity="1"><g transform="translate(184.81724, 11.285278)"><g><path d="M 5.234375 0 L 1.03125 0 L 1.03125 -7.546875 L 5.234375 -7.546875 L 5.234375 -6.765625 L 1.90625 -6.765625 L 1.90625 -4.328125 L 5.03125 -4.328125 L 5.03125 -3.5625 L 1.90625 -3.5625 L 1.90625 -0.78125 L 5.234375 -0.78125 Z M 5.234375 0 "/></g></g></g><g fill="#545454" fill-opacity="1"><g transform="translate(196.784178, 11.285278)"><g><path d="M 3.0625 -7.546875 C 3.6875 -7.546875 4.195312 -7.46875 4.59375 -7.3125 C 5 -7.15625 5.300781 -6.921875 5.5 -6.609375 C 5.707031 -6.296875 5.8125 -5.898438 5.8125 -5.421875 C 5.8125 -5.015625 5.738281 -4.675781 5.59375 -4.40625 C 5.445312 -4.144531 5.253906 -3.929688 5.015625 -3.765625 C 4.785156 -3.597656 4.539062 -3.472656 4.28125 -3.390625 L 6.34375 0 L 5.328125 0 L 3.46875 -3.140625 L 1.90625 -3.140625 L 1.90625 0 L 1.03125 0 L 1.03125 -7.546875 Z M 3.015625 -6.78125 L 1.90625 -6.78125 L 1.90625 -3.890625 L 3.109375 -3.890625 C 3.722656 -3.890625 4.175781 -4.015625 4.46875 -4.265625 C 4.757812 -4.515625 4.90625 -4.882812 4.90625 -5.375 C 4.90625 -5.882812 4.75 -6.242188 4.4375 -6.453125 C 4.125 -6.671875 3.648438 -6.78125 3.015625 -6.78125 Z M 3.015625 -6.78125 "/></g></g></g><g fill="#545454" fill-opacity="1"><g transform="translate(209.400716, 11.285278)"><g><path d="M 1.03125 -7.546875 L 3.171875 -7.546875 C 4.109375 -7.546875 4.8125 -7.398438 5.28125 -7.109375 C 5.757812 -6.828125 6 -6.347656 6 -5.671875 C 6 -5.378906 5.941406 -5.117188 5.828125 -4.890625 C 5.722656 -4.660156 5.5625 -4.46875 5.34375 -4.3125 C 5.132812 -4.164062 4.875 -4.0625 4.5625 -4 L 4.5625 -3.953125 C 4.882812 -3.898438 5.171875 -3.800781 5.421875 -3.65625 C 5.679688 -3.519531 5.882812 -3.328125 6.03125 -3.078125 C 6.175781 -2.835938 6.25 -2.523438 6.25 -2.140625 C 6.25 -1.679688 6.140625 -1.289062 5.921875 -0.96875 C 5.710938 -0.644531 5.410156 -0.398438 5.015625 -0.234375 C 4.628906 -0.078125 4.164062 0 3.625 0 L 1.03125 0 Z M 1.90625 -4.3125 L 3.359375 -4.3125 C 4.015625 -4.3125 4.46875 -4.414062 4.71875 -4.625 C 4.96875 -4.84375 5.09375 -5.160156 5.09375 -5.578125 C 5.09375 -6.003906 4.941406 -6.3125 4.640625 -6.5 C 4.335938 -6.695312 3.859375 -6.796875 3.203125 -6.796875 L 1.90625 -6.796875 Z M 1.90625 -3.5625 L 1.90625 -0.75 L 3.46875 -0.75 C 4.144531 -0.75 4.617188 -0.878906 4.890625 -1.140625 C 5.171875 -1.398438 5.3125 -1.753906 5.3125 -2.203125 C 5.3125 -2.492188 5.25 -2.738281 5.125 -2.9375 C 5 -3.144531 4.796875 -3.300781 4.515625 -3.40625 C 4.234375 -3.507812 3.863281 -3.5625 3.40625 -3.5625 Z M 1.90625 -3.5625 "/></g></g></g><g fill="#545454" fill-opacity="1"><g transform="translate(222.321439, 11.285278)"><g><path d="M 5.765625 0 L 4.828125 -2.390625 L 1.8125 -2.390625 L 0.890625 0 L 0 0 L 2.953125 -7.578125 L 3.734375 -7.578125 L 6.671875 0 Z M 4.5625 -3.171875 L 3.6875 -5.546875 C 3.664062 -5.609375 3.628906 -5.707031 3.578125 -5.84375 C 3.535156 -5.988281 3.488281 -6.132812 3.4375 -6.28125 C 3.394531 -6.4375 3.359375 -6.5625 3.328125 -6.65625 C 3.296875 -6.519531 3.257812 -6.378906 3.21875 -6.234375 C 3.175781 -6.097656 3.132812 -5.96875 3.09375 -5.84375 C 3.0625 -5.726562 3.03125 -5.628906 3 -5.546875 L 2.109375 -3.171875 Z M 4.5625 -3.171875 "/></g></g></g><g fill="#545454" fill-opacity="1"><g transform="translate(235.097805, 11.285278)"><g><path d="M 4.25 -3.953125 L 6.890625 -3.953125 L 6.890625 -0.296875 C 6.492188 -0.160156 6.085938 -0.0625 5.671875 0 C 5.253906 0.0703125 4.785156 0.109375 4.265625 0.109375 C 3.484375 0.109375 2.820312 -0.046875 2.28125 -0.359375 C 1.75 -0.671875 1.34375 -1.117188 1.0625 -1.703125 C 0.78125 -2.285156 0.640625 -2.972656 0.640625 -3.765625 C 0.640625 -4.546875 0.789062 -5.226562 1.09375 -5.8125 C 1.40625 -6.394531 1.851562 -6.847656 2.4375 -7.171875 C 3.019531 -7.492188 3.722656 -7.65625 4.546875 -7.65625 C 4.960938 -7.65625 5.359375 -7.613281 5.734375 -7.53125 C 6.109375 -7.457031 6.457031 -7.347656 6.78125 -7.203125 L 6.453125 -6.4375 C 6.171875 -6.5625 5.863281 -6.664062 5.53125 -6.75 C 5.195312 -6.832031 4.847656 -6.875 4.484375 -6.875 C 3.867188 -6.875 3.34375 -6.742188 2.90625 -6.484375 C 2.46875 -6.234375 2.132812 -5.875 1.90625 -5.40625 C 1.675781 -4.945312 1.5625 -4.398438 1.5625 -3.765625 C 1.5625 -3.140625 1.660156 -2.59375 1.859375 -2.125 C 2.066406 -1.65625 2.382812 -1.289062 2.8125 -1.03125 C 3.238281 -0.78125 3.789062 -0.65625 4.46875 -0.65625 C 4.8125 -0.65625 5.101562 -0.675781 5.34375 -0.71875 C 5.59375 -0.757812 5.816406 -0.804688 6.015625 -0.859375 L 6.015625 -3.171875 L 4.25 -3.171875 Z M 4.25 -3.953125 "/></g></g></g><g fill="#545454" fill-opacity="1"><g transform="translate(248.874363, 11.285278)"><g><path d="M 5.765625 0 L 4.828125 -2.390625 L 1.8125 -2.390625 L 0.890625 0 L 0 0 L 2.953125 -7.578125 L 3.734375 -7.578125 L 6.671875 0 Z M 4.5625 -3.171875 L 3.6875 -5.546875 C 3.664062 -5.609375 3.628906 -5.707031 3.578125 -5.84375 C 3.535156 -5.988281 3.488281 -6.132812 3.4375 -6.28125 C 3.394531 -6.4375 3.359375 -6.5625 3.328125 -6.65625 C 3.296875 -6.519531 3.257812 -6.378906 3.21875 -6.234375 C 3.175781 -6.097656 3.132812 -5.96875 3.09375 -5.84375 C 3.0625 -5.726562 3.03125 -5.628906 3 -5.546875 L 2.109375 -3.171875 Z M 4.5625 -3.171875 "/></g></g></g><g fill="#545454" fill-opacity="1"><g transform="translate(261.650729, 11.285278)"><g><path d="M 1.03125 0 L 1.03125 -7.546875 L 1.90625 -7.546875 L 1.90625 0 Z M 1.03125 0 "/></g></g></g><g fill="#545454" fill-opacity="1"><g transform="translate(270.699618, 11.285278)"><g/></g></g><g fill="#545454" fill-opacity="1"><g transform="translate(279.542284, 11.285278)"><g><path d="M 5.28125 -2 C 5.28125 -1.550781 5.171875 -1.171875 4.953125 -0.859375 C 4.734375 -0.546875 4.421875 -0.304688 4.015625 -0.140625 C 3.617188 0.0234375 3.148438 0.109375 2.609375 0.109375 C 2.328125 0.109375 2.054688 0.09375 1.796875 0.0625 C 1.546875 0.03125 1.3125 -0.0078125 1.09375 -0.0625 C 0.882812 -0.113281 0.703125 -0.175781 0.546875 -0.25 L 0.546875 -1.09375 C 0.796875 -0.976562 1.109375 -0.875 1.484375 -0.78125 C 1.859375 -0.695312 2.25 -0.65625 2.65625 -0.65625 C 3.03125 -0.65625 3.347656 -0.703125 3.609375 -0.796875 C 3.867188 -0.898438 4.066406 -1.046875 4.203125 -1.234375 C 4.335938 -1.429688 4.40625 -1.664062 4.40625 -1.9375 C 4.40625 -2.195312 4.347656 -2.410156 4.234375 -2.578125 C 4.117188 -2.753906 3.929688 -2.910156 3.671875 -3.046875 C 3.410156 -3.191406 3.050781 -3.347656 2.59375 -3.515625 C 2.28125 -3.628906 2 -3.753906 1.75 -3.890625 C 1.507812 -4.023438 1.304688 -4.175781 1.140625 -4.34375 C 0.972656 -4.519531 0.847656 -4.71875 0.765625 -4.9375 C 0.679688 -5.164062 0.640625 -5.425781 0.640625 -5.71875 C 0.640625 -6.125 0.738281 -6.46875 0.9375 -6.75 C 1.144531 -7.039062 1.429688 -7.265625 1.796875 -7.421875 C 2.160156 -7.578125 2.578125 -7.65625 3.046875 -7.65625 C 3.453125 -7.65625 3.820312 -7.613281 4.15625 -7.53125 C 4.5 -7.457031 4.816406 -7.359375 5.109375 -7.234375 L 4.828125 -6.484375 C 4.554688 -6.585938 4.269531 -6.675781 3.96875 -6.75 C 3.664062 -6.832031 3.351562 -6.875 3.03125 -6.875 C 2.707031 -6.875 2.429688 -6.828125 2.203125 -6.734375 C 1.984375 -6.640625 1.816406 -6.503906 1.703125 -6.328125 C 1.585938 -6.160156 1.53125 -5.957031 1.53125 -5.71875 C 1.53125 -5.457031 1.582031 -5.238281 1.6875 -5.0625 C 1.800781 -4.882812 1.976562 -4.726562 2.21875 -4.59375 C 2.46875 -4.457031 2.796875 -4.316406 3.203125 -4.171875 C 3.648438 -4.003906 4.023438 -3.832031 4.328125 -3.65625 C 4.640625 -3.476562 4.875 -3.257812 5.03125 -3 C 5.195312 -2.738281 5.28125 -2.40625 5.28125 -2 Z M 5.28125 -2 "/></g></g></g><g fill="#545454" fill-opacity="1"><g transform="translate(291.431871, 11.285278)"><g><path d="M 7.578125 -3.78125 C 7.578125 -3.195312 7.5 -2.664062 7.34375 -2.1875 C 7.195312 -1.71875 6.976562 -1.3125 6.6875 -0.96875 C 6.394531 -0.625 6.035156 -0.359375 5.609375 -0.171875 C 5.179688 0.015625 4.679688 0.109375 4.109375 0.109375 C 3.523438 0.109375 3.015625 0.015625 2.578125 -0.171875 C 2.148438 -0.359375 1.789062 -0.625 1.5 -0.96875 C 1.21875 -1.3125 1.003906 -1.722656 0.859375 -2.203125 C 0.710938 -2.679688 0.640625 -3.210938 0.640625 -3.796875 C 0.640625 -4.566406 0.765625 -5.238281 1.015625 -5.8125 C 1.273438 -6.394531 1.660156 -6.847656 2.171875 -7.171875 C 2.691406 -7.492188 3.34375 -7.65625 4.125 -7.65625 C 4.875 -7.65625 5.503906 -7.492188 6.015625 -7.171875 C 6.523438 -6.859375 6.910156 -6.410156 7.171875 -5.828125 C 7.441406 -5.253906 7.578125 -4.570312 7.578125 -3.78125 Z M 1.5625 -3.78125 C 1.5625 -3.144531 1.648438 -2.59375 1.828125 -2.125 C 2.015625 -1.65625 2.296875 -1.289062 2.671875 -1.03125 C 3.054688 -0.78125 3.535156 -0.65625 4.109375 -0.65625 C 4.703125 -0.65625 5.179688 -0.78125 5.546875 -1.03125 C 5.921875 -1.289062 6.195312 -1.65625 6.375 -2.125 C 6.550781 -2.59375 6.640625 -3.144531 6.640625 -3.78125 C 6.640625 -4.75 6.4375 -5.507812 6.03125 -6.0625 C 5.625 -6.613281 4.988281 -6.890625 4.125 -6.890625 C 3.539062 -6.890625 3.0625 -6.757812 2.6875 -6.5 C 2.3125 -6.25 2.03125 -5.894531 1.84375 -5.4375 C 1.65625 -4.976562 1.5625 -4.425781 1.5625 -3.78125 Z M 1.5625 -3.78125 "/></g></g></g><g fill="#545454" fill-opacity="1"><g transform="translate(305.744607, 11.285278)"><g><path d="M 1.03125 0 L 1.03125 -7.546875 L 1.90625 -7.546875 L 1.90625 -0.78125 L 5.25 -0.78125 L 5.25 0 Z M 1.03125 0 "/></g></g></g><g fill="#545454" fill-opacity="1"><g transform="translate(317.355805, 11.285278)"><g><path d="M 6.734375 -7.546875 L 6.734375 -2.65625 C 6.734375 -2.125 6.625 -1.648438 6.40625 -1.234375 C 6.195312 -0.816406 5.875 -0.488281 5.4375 -0.25 C 5.007812 -0.0078125 4.46875 0.109375 3.8125 0.109375 C 2.875 0.109375 2.160156 -0.140625 1.671875 -0.640625 C 1.191406 -1.148438 0.953125 -1.832031 0.953125 -2.6875 L 0.953125 -7.546875 L 1.84375 -7.546875 L 1.84375 -2.65625 C 1.84375 -2.019531 2.007812 -1.523438 2.34375 -1.171875 C 2.6875 -0.828125 3.191406 -0.65625 3.859375 -0.65625 C 4.316406 -0.65625 4.691406 -0.738281 4.984375 -0.90625 C 5.285156 -1.070312 5.503906 -1.304688 5.640625 -1.609375 C 5.785156 -1.910156 5.859375 -2.257812 5.859375 -2.65625 L 5.859375 -7.546875 Z M 6.734375 -7.546875 "/></g></g></g><g fill="#545454" fill-opacity="1"><g transform="translate(331.152985, 11.285278)"><g><path d="M 5.28125 -2 C 5.28125 -1.550781 5.171875 -1.171875 4.953125 -0.859375 C 4.734375 -0.546875 4.421875 -0.304688 4.015625 -0.140625 C 3.617188 0.0234375 3.148438 0.109375 2.609375 0.109375 C 2.328125 0.109375 2.054688 0.09375 1.796875 0.0625 C 1.546875 0.03125 1.3125 -0.0078125 1.09375 -0.0625 C 0.882812 -0.113281 0.703125 -0.175781 0.546875 -0.25 L 0.546875 -1.09375 C 0.796875 -0.976562 1.109375 -0.875 1.484375 -0.78125 C 1.859375 -0.695312 2.25 -0.65625 2.65625 -0.65625 C 3.03125 -0.65625 3.347656 -0.703125 3.609375 -0.796875 C 3.867188 -0.898438 4.066406 -1.046875 4.203125 -1.234375 C 4.335938 -1.429688 4.40625 -1.664062 4.40625 -1.9375 C 4.40625 -2.195312 4.347656 -2.410156 4.234375 -2.578125 C 4.117188 -2.753906 3.929688 -2.910156 3.671875 -3.046875 C 3.410156 -3.191406 3.050781 -3.347656 2.59375 -3.515625 C 2.28125 -3.628906 2 -3.753906 1.75 -3.890625 C 1.507812 -4.023438 1.304688 -4.175781 1.140625 -4.34375 C 0.972656 -4.519531 0.847656 -4.71875 0.765625 -4.9375 C 0.679688 -5.164062 0.640625 -5.425781 0.640625 -5.71875 C 0.640625 -6.125 0.738281 -6.46875 0.9375 -6.75 C 1.144531 -7.039062 1.429688 -7.265625 1.796875 -7.421875 C 2.160156 -7.578125 2.578125 -7.65625 3.046875 -7.65625 C 3.453125 -7.65625 3.820312 -7.613281 4.15625 -7.53125 C 4.5 -7.457031 4.816406 -7.359375 5.109375 -7.234375 L 4.828125 -6.484375 C 4.554688 -6.585938 4.269531 -6.675781 3.96875 -6.75 C 3.664062 -6.832031 3.351562 -6.875 3.03125 -6.875 C 2.707031 -6.875 2.429688 -6.828125 2.203125 -6.734375 C 1.984375 -6.640625 1.816406 -6.503906 1.703125 -6.328125 C 1.585938 -6.160156 1.53125 -5.957031 1.53125 -5.71875 C 1.53125 -5.457031 1.582031 -5.238281 1.6875 -5.0625 C 1.800781 -4.882812 1.976562 -4.726562 2.21875 -4.59375 C 2.46875 -4.457031 2.796875 -4.316406 3.203125 -4.171875 C 3.648438 -4.003906 4.023438 -3.832031 4.328125 -3.65625 C 4.640625 -3.476562 4.875 -3.257812 5.03125 -3 C 5.195312 -2.738281 5.28125 -2.40625 5.28125 -2 Z M 5.28125 -2 "/></g></g></g><g fill="#545454" fill-opacity="1"><g transform="translate(343.042595, 11.285278)"><g><path d="M 1.03125 0 L 1.03125 -7.546875 L 1.90625 -7.546875 L 1.90625 0 Z M 1.03125 0 "/></g></g></g></g></g></g><g clip-path="url(#b01ca0fbbd)"><g transform="matrix(1, 0, 0, 1, 334, 18)"><g clip-path="url(#d0fe515d74)"><g fill="#737373" fill-opacity="1"><g transform="translate(0.996793, 16.356578)"><g><path d="M 1.15625 -0.8125 C 1.15625 -1.15625 1.234375 -1.410156 1.390625 -1.578125 C 1.546875 -1.753906 1.769531 -1.84375 2.0625 -1.84375 C 2.351562 -1.84375 2.582031 -1.753906 2.75 -1.578125 C 2.914062 -1.410156 3 -1.15625 3 -0.8125 C 3 -0.476562 2.914062 -0.222656 2.75 -0.046875 C 2.582031 0.128906 2.351562 0.21875 2.0625 0.21875 C 1.800781 0.21875 1.582031 0.140625 1.40625 -0.015625 C 1.238281 -0.179688 1.15625 -0.445312 1.15625 -0.8125 Z M 1.15625 -0.8125 "/></g></g></g><g fill="#737373" fill-opacity="1"><g transform="translate(5.160016, 16.356578)"><g><path d="M 4.6875 0.15625 C 3.476562 0.15625 2.539062 -0.210938 1.875 -0.953125 C 1.207031 -1.703125 0.875 -2.757812 0.875 -4.125 C 0.875 -5.53125 1.210938 -6.613281 1.890625 -7.375 C 2.566406 -8.132812 3.523438 -8.515625 4.765625 -8.515625 C 5.171875 -8.515625 5.570312 -8.472656 5.96875 -8.390625 C 6.375 -8.304688 6.691406 -8.207031 6.921875 -8.09375 L 6.53125 -7.015625 C 6.257812 -7.117188 5.957031 -7.207031 5.625 -7.28125 C 5.289062 -7.363281 5 -7.40625 4.75 -7.40625 C 3.039062 -7.40625 2.1875 -6.316406 2.1875 -4.140625 C 2.1875 -3.117188 2.394531 -2.332031 2.8125 -1.78125 C 3.226562 -1.226562 3.84375 -0.953125 4.65625 -0.953125 C 5.351562 -0.953125 6.066406 -1.101562 6.796875 -1.40625 L 6.796875 -0.28125 C 6.242188 0.0078125 5.539062 0.15625 4.6875 0.15625 Z M 4.6875 0.15625 "/></g></g></g><g fill="#737373" fill-opacity="1"><g transform="translate(12.607979, 16.356578)"><g><path d="M 8.5625 -4.1875 C 8.5625 -2.820312 8.21875 -1.753906 7.53125 -0.984375 C 6.84375 -0.222656 5.894531 0.15625 4.6875 0.15625 C 3.9375 0.15625 3.269531 -0.0195312 2.6875 -0.375 C 2.113281 -0.726562 1.664062 -1.234375 1.34375 -1.890625 C 1.03125 -2.546875 0.875 -3.3125 0.875 -4.1875 C 0.875 -5.550781 1.210938 -6.613281 1.890625 -7.375 C 2.578125 -8.132812 3.53125 -8.515625 4.75 -8.515625 C 5.914062 -8.515625 6.84375 -8.125 7.53125 -7.34375 C 8.21875 -6.570312 8.5625 -5.519531 8.5625 -4.1875 Z M 2.1875 -4.1875 C 2.1875 -3.125 2.398438 -2.3125 2.828125 -1.75 C 3.253906 -1.1875 3.882812 -0.90625 4.71875 -0.90625 C 5.550781 -0.90625 6.179688 -1.179688 6.609375 -1.734375 C 7.035156 -2.296875 7.25 -3.113281 7.25 -4.1875 C 7.25 -5.25 7.035156 -6.054688 6.609375 -6.609375 C 6.179688 -7.171875 5.546875 -7.453125 4.703125 -7.453125 C 3.867188 -7.453125 3.238281 -7.175781 2.8125 -6.625 C 2.394531 -6.082031 2.1875 -5.269531 2.1875 -4.1875 Z M 2.1875 -4.1875 "/></g></g></g><g fill="#737373" fill-opacity="1"><g transform="translate(22.057342, 16.356578)"><g><path d="M 12.015625 0 L 12.015625 -5.4375 C 12.015625 -6.113281 11.867188 -6.617188 11.578125 -6.953125 C 11.296875 -7.285156 10.851562 -7.453125 10.25 -7.453125 C 9.46875 -7.453125 8.882812 -7.222656 8.5 -6.765625 C 8.125 -6.316406 7.9375 -5.617188 7.9375 -4.671875 L 7.9375 0 L 6.671875 0 L 6.671875 -5.4375 C 6.671875 -6.113281 6.523438 -6.617188 6.234375 -6.953125 C 5.953125 -7.285156 5.507812 -7.453125 4.90625 -7.453125 C 4.113281 -7.453125 3.53125 -7.210938 3.15625 -6.734375 C 2.789062 -6.253906 2.609375 -5.472656 2.609375 -4.390625 L 2.609375 0 L 1.34375 0 L 1.34375 -8.375 L 2.375 -8.375 L 2.578125 -7.21875 L 2.640625 -7.21875 C 2.878906 -7.625 3.21875 -7.941406 3.65625 -8.171875 C 4.09375 -8.398438 4.578125 -8.515625 5.109375 -8.515625 C 6.421875 -8.515625 7.28125 -8.046875 7.6875 -7.109375 L 7.75 -7.109375 C 8 -7.546875 8.359375 -7.890625 8.828125 -8.140625 C 9.296875 -8.390625 9.835938 -8.515625 10.453125 -8.515625 C 11.398438 -8.515625 12.109375 -8.269531 12.578125 -7.78125 C 13.046875 -7.300781 13.28125 -6.523438 13.28125 -5.453125 L 13.28125 0 Z M 12.015625 0 "/></g></g></g></g></g></g></g></g></svg>