<svg version="1.0" preserveAspectRatio="xMidYMid meet" viewBox="5.175000000000001 11.095312499999999 370.125 43.875" zoomAndPan="magnify" xmlns:xlink="http://www.w3.org/1999/xlink" xmlns="http://www.w3.org/2000/svg" style="max-height: 500px" width="370.125" height="43.875"><defs><g/><clipPath id="2c99835440"><path clip-rule="nonzero" d="M 0.921875 0 L 341 0 L 341 51 L 0.921875 51 Z M 0.921875 0"/></clipPath><clipPath id="e13a710bcf"><rect height="51" y="0" width="341" x="0"/></clipPath><clipPath id="53d1026e83"><path clip-rule="nonzero" d="M 4 43 L 359 43 L 359 57.839844 L 4 57.839844 Z M 4 43"/></clipPath><clipPath id="2e82fc91f9"><rect height="15" y="0" width="355" x="0"/></clipPath><clipPath id="793060104c"><path clip-rule="nonzero" d="M 337 21 L 373.640625 21 L 373.640625 43 L 337 43 Z M 337 21"/></clipPath><clipPath id="86f839ddf6"><rect height="22" y="0" width="37" x="0"/></clipPath><clipPath id="5e9499ca3b"><rect height="58" y="0" width="374" x="0"/></clipPath></defs><g transform="matrix(1, 0, 0, 1, 1, -0.000000000000001479)"><g clip-path="url(#5e9499ca3b)"><g clip-path="url(#2c99835440)"><g transform="matrix(1, 0, 0, 1, 0, -0.000000000000001479)"><g clip-path="url(#e13a710bcf)"><g fill-opacity="1" fill="#10113c"><g transform="translate(1.738941, 38.28035)"><g><path d="M 3.328125 0 L 3.328125 -26.390625 L 8.921875 -26.390625 L 8.921875 0 Z M 3.328125 0"/></g></g></g><g fill-opacity="1" fill="#10113c"><g transform="translate(17.18987, 38.28035)"><g><path d="M 26.734375 0 L 19.625 0 L 8.140625 -19.96875 L 7.984375 -19.96875 C 8.023438 -19.132812 8.0625 -18.296875 8.09375 -17.453125 C 8.132812 -16.609375 8.171875 -15.769531 8.203125 -14.9375 C 8.242188 -14.101562 8.285156 -13.265625 8.328125 -12.421875 L 8.328125 0 L 3.328125 0 L 3.328125 -26.390625 L 10.375 -26.390625 L 21.84375 -6.625 L 21.96875 -6.625 C 21.945312 -7.445312 21.914062 -8.257812 21.875 -9.0625 C 21.84375 -9.863281 21.8125 -10.664062 21.78125 -11.46875 C 21.75 -12.28125 21.722656 -13.09375 21.703125 -13.90625 L 21.703125 -26.390625 L 26.734375 -26.390625 Z M 26.734375 0"/></g></g></g><g fill-opacity="1" fill="#10113c"><g transform="translate(50.451271, 38.28035)"><g><path d="M 27.28125 -13.234375 C 27.28125 -11.203125 27.023438 -9.351562 26.515625 -7.6875 C 26.015625 -6.019531 25.25 -4.582031 24.21875 -3.375 C 23.1875 -2.175781 21.878906 -1.253906 20.296875 -0.609375 C 18.722656 0.0351562 16.863281 0.359375 14.71875 0.359375 C 12.5625 0.359375 10.691406 0.0351562 9.109375 -0.609375 C 7.535156 -1.253906 6.234375 -2.175781 5.203125 -3.375 C 4.179688 -4.582031 3.414062 -6.019531 2.90625 -7.6875 C 2.394531 -9.363281 2.140625 -11.222656 2.140625 -13.265625 C 2.140625 -15.992188 2.585938 -18.375 3.484375 -20.40625 C 4.390625 -22.4375 5.773438 -24.007812 7.640625 -25.125 C 9.503906 -26.25 11.875 -26.8125 14.75 -26.8125 C 17.613281 -26.8125 19.96875 -26.25 21.8125 -25.125 C 23.65625 -24.007812 25.023438 -22.429688 25.921875 -20.390625 C 26.828125 -18.359375 27.28125 -15.972656 27.28125 -13.234375 Z M 8.015625 -13.234375 C 8.015625 -11.390625 8.242188 -9.800781 8.703125 -8.46875 C 9.171875 -7.144531 9.894531 -6.125 10.875 -5.40625 C 11.863281 -4.6875 13.144531 -4.328125 14.71875 -4.328125 C 16.300781 -4.328125 17.585938 -4.6875 18.578125 -5.40625 C 19.566406 -6.125 20.285156 -7.144531 20.734375 -8.46875 C 21.179688 -9.800781 21.40625 -11.390625 21.40625 -13.234375 C 21.40625 -16.003906 20.882812 -18.179688 19.84375 -19.765625 C 18.8125 -21.359375 17.113281 -22.15625 14.75 -22.15625 C 13.175781 -22.15625 11.890625 -21.796875 10.890625 -21.078125 C 9.898438 -20.359375 9.171875 -19.332031 8.703125 -18 C 8.242188 -16.675781 8.015625 -15.085938 8.015625 -13.234375 Z M 8.015625 -13.234375"/></g></g></g><g fill-opacity="1" fill="#10113c"><g transform="translate(83.081096, 38.28035)"><g><path d="M 24.03125 -26.390625 L 15.046875 0 L 8.953125 0 L 0 -26.390625 L 5.65625 -26.390625 L 10.609375 -10.6875 C 10.691406 -10.425781 10.828125 -9.929688 11.015625 -9.203125 C 11.210938 -8.472656 11.410156 -7.703125 11.609375 -6.890625 C 11.804688 -6.078125 11.941406 -5.40625 12.015625 -4.875 C 12.085938 -5.40625 12.21875 -6.070312 12.40625 -6.875 C 12.59375 -7.6875 12.78125 -8.453125 12.96875 -9.171875 C 13.15625 -9.898438 13.289062 -10.40625 13.375 -10.6875 L 18.375 -26.390625 Z M 24.03125 -26.390625"/></g></g></g><g fill-opacity="1" fill="#10113c"><g transform="translate(110.315448, 38.28035)"><g><path d="M 19.484375 0 L 17.5625 -6.28125 L 7.9375 -6.28125 L 6.03125 0 L 0 0 L 9.3125 -26.5 L 16.15625 -26.5 L 25.5 0 Z M 16.234375 -10.96875 L 14.3125 -17.109375 C 14.195312 -17.515625 14.035156 -18.039062 13.828125 -18.6875 C 13.628906 -19.332031 13.429688 -19.988281 13.234375 -20.65625 C 13.035156 -21.320312 12.878906 -21.90625 12.765625 -22.40625 C 12.640625 -21.90625 12.472656 -21.289062 12.265625 -20.5625 C 12.054688 -19.84375 11.851562 -19.15625 11.65625 -18.5 C 11.46875 -17.851562 11.332031 -17.390625 11.25 -17.109375 L 9.34375 -10.96875 Z M 16.234375 -10.96875"/></g></g></g><g fill-opacity="1" fill="#10113c"><g transform="translate(139.029495, 38.28035)"><g><path d="M 18.90625 -7.328125 C 18.90625 -5.765625 18.523438 -4.40625 17.765625 -3.25 C 17.003906 -2.09375 15.898438 -1.203125 14.453125 -0.578125 C 13.003906 0.046875 11.242188 0.359375 9.171875 0.359375 C 8.253906 0.359375 7.359375 0.296875 6.484375 0.171875 C 5.617188 0.0546875 4.785156 -0.113281 3.984375 -0.34375 C 3.179688 -0.582031 2.421875 -0.878906 1.703125 -1.234375 L 1.703125 -6.421875 C 2.953125 -5.867188 4.25 -5.367188 5.59375 -4.921875 C 6.945312 -4.484375 8.285156 -4.265625 9.609375 -4.265625 C 10.515625 -4.265625 11.25 -4.382812 11.8125 -4.625 C 12.375 -4.863281 12.78125 -5.191406 13.03125 -5.609375 C 13.28125 -6.035156 13.40625 -6.519531 13.40625 -7.0625 C 13.40625 -7.71875 13.179688 -8.28125 12.734375 -8.75 C 12.296875 -9.21875 11.6875 -9.65625 10.90625 -10.0625 C 10.132812 -10.476562 9.257812 -10.921875 8.28125 -11.390625 C 7.664062 -11.679688 7 -12.03125 6.28125 -12.4375 C 5.5625 -12.851562 4.875 -13.363281 4.21875 -13.96875 C 3.570312 -14.570312 3.039062 -15.300781 2.625 -16.15625 C 2.207031 -17.019531 2 -18.054688 2 -19.265625 C 2 -20.835938 2.359375 -22.179688 3.078125 -23.296875 C 3.804688 -24.421875 4.835938 -25.28125 6.171875 -25.875 C 7.515625 -26.46875 9.101562 -26.765625 10.9375 -26.765625 C 12.3125 -26.765625 13.617188 -26.601562 14.859375 -26.28125 C 16.109375 -25.96875 17.410156 -25.507812 18.765625 -24.90625 L 16.96875 -20.5625 C 15.75 -21.050781 14.65625 -21.429688 13.6875 -21.703125 C 12.726562 -21.972656 11.753906 -22.109375 10.765625 -22.109375 C 10.066406 -22.109375 9.46875 -21.992188 8.96875 -21.765625 C 8.476562 -21.546875 8.101562 -21.234375 7.84375 -20.828125 C 7.59375 -20.429688 7.46875 -19.96875 7.46875 -19.4375 C 7.46875 -18.8125 7.648438 -18.285156 8.015625 -17.859375 C 8.390625 -17.429688 8.945312 -17.019531 9.6875 -16.625 C 10.425781 -16.226562 11.347656 -15.765625 12.453125 -15.234375 C 13.804688 -14.597656 14.957031 -13.929688 15.90625 -13.234375 C 16.863281 -12.546875 17.601562 -11.734375 18.125 -10.796875 C 18.644531 -9.867188 18.90625 -8.710938 18.90625 -7.328125 Z M 18.90625 -7.328125"/></g></g></g><g fill-opacity="1" fill="#10113c"><g transform="translate(162.6007, 38.28035)"><g><path d="M 3.328125 0 L 3.328125 -26.390625 L 8.921875 -26.390625 L 8.921875 0 Z M 3.328125 0"/></g></g></g><g fill-opacity="1" fill="#00bf63"><g transform="translate(178.067959, 38.28035)"><g><path d="M 27.28125 -13.234375 C 27.28125 -11.203125 27.023438 -9.351562 26.515625 -7.6875 C 26.015625 -6.019531 25.25 -4.582031 24.21875 -3.375 C 23.1875 -2.175781 21.878906 -1.253906 20.296875 -0.609375 C 18.722656 0.0351562 16.863281 0.359375 14.71875 0.359375 C 12.5625 0.359375 10.691406 0.0351562 9.109375 -0.609375 C 7.535156 -1.253906 6.234375 -2.175781 5.203125 -3.375 C 4.179688 -4.582031 3.414062 -6.019531 2.90625 -7.6875 C 2.394531 -9.363281 2.140625 -11.222656 2.140625 -13.265625 C 2.140625 -15.992188 2.585938 -18.375 3.484375 -20.40625 C 4.390625 -22.4375 5.773438 -24.007812 7.640625 -25.125 C 9.503906 -26.25 11.875 -26.8125 14.75 -26.8125 C 17.613281 -26.8125 19.96875 -26.25 21.8125 -25.125 C 23.65625 -24.007812 25.023438 -22.429688 25.921875 -20.390625 C 26.828125 -18.359375 27.28125 -15.972656 27.28125 -13.234375 Z M 8.015625 -13.234375 C 8.015625 -11.390625 8.242188 -9.800781 8.703125 -8.46875 C 9.171875 -7.144531 9.894531 -6.125 10.875 -5.40625 C 11.863281 -4.6875 13.144531 -4.328125 14.71875 -4.328125 C 16.300781 -4.328125 17.585938 -4.6875 18.578125 -5.40625 C 19.566406 -6.125 20.285156 -7.144531 20.734375 -8.46875 C 21.179688 -9.800781 21.40625 -11.390625 21.40625 -13.234375 C 21.40625 -16.003906 20.882812 -18.179688 19.84375 -19.765625 C 18.8125 -21.359375 17.113281 -22.15625 14.75 -22.15625 C 13.175781 -22.15625 11.890625 -21.796875 10.890625 -21.078125 C 9.898438 -20.359375 9.171875 -19.332031 8.703125 -18 C 8.242188 -16.675781 8.015625 -15.085938 8.015625 -13.234375 Z M 8.015625 -13.234375"/></g></g></g><g fill-opacity="1" fill="#00bf63"><g transform="translate(210.697784, 38.28035)"><g><path d="M 26.734375 0 L 19.625 0 L 8.140625 -19.96875 L 7.984375 -19.96875 C 8.023438 -19.132812 8.0625 -18.296875 8.09375 -17.453125 C 8.132812 -16.609375 8.171875 -15.769531 8.203125 -14.9375 C 8.242188 -14.101562 8.285156 -13.265625 8.328125 -12.421875 L 8.328125 0 L 3.328125 0 L 3.328125 -26.390625 L 10.375 -26.390625 L 21.84375 -6.625 L 21.96875 -6.625 C 21.945312 -7.445312 21.914062 -8.257812 21.875 -9.0625 C 21.84375 -9.863281 21.8125 -10.664062 21.78125 -11.46875 C 21.75 -12.28125 21.722656 -13.09375 21.703125 -13.90625 L 21.703125 -26.390625 L 26.734375 -26.390625 Z M 26.734375 0"/></g></g></g><g fill-opacity="1" fill="#00bf63"><g transform="translate(243.959185, 38.28035)"><g><path d="M 3.328125 0 L 3.328125 -26.390625 L 8.921875 -26.390625 L 8.921875 -4.625 L 19.625 -4.625 L 19.625 0 Z M 3.328125 0"/></g></g></g><g fill-opacity="1" fill="#00bf63"><g transform="translate(268.053697, 38.28035)"><g><path d="M 3.328125 0 L 3.328125 -26.390625 L 8.921875 -26.390625 L 8.921875 0 Z M 3.328125 0"/></g></g></g><g fill-opacity="1" fill="#00bf63"><g transform="translate(283.504626, 38.28035)"><g><path d="M 26.734375 0 L 19.625 0 L 8.140625 -19.96875 L 7.984375 -19.96875 C 8.023438 -19.132812 8.0625 -18.296875 8.09375 -17.453125 C 8.132812 -16.609375 8.171875 -15.769531 8.203125 -14.9375 C 8.242188 -14.101562 8.285156 -13.265625 8.328125 -12.421875 L 8.328125 0 L 3.328125 0 L 3.328125 -26.390625 L 10.375 -26.390625 L 21.84375 -6.625 L 21.96875 -6.625 C 21.945312 -7.445312 21.914062 -8.257812 21.875 -9.0625 C 21.84375 -9.863281 21.8125 -10.664062 21.78125 -11.46875 C 21.75 -12.28125 21.722656 -13.09375 21.703125 -13.90625 L 21.703125 -26.390625 L 26.734375 -26.390625 Z M 26.734375 0"/></g></g></g><g fill-opacity="1" fill="#00bf63"><g transform="translate(316.766028, 38.28035)"><g><path d="M 18.515625 0 L 3.328125 0 L 3.328125 -26.390625 L 18.515625 -26.390625 L 18.515625 -21.8125 L 8.921875 -21.8125 L 8.921875 -16.015625 L 17.859375 -16.015625 L 17.859375 -11.421875 L 8.921875 -11.421875 L 8.921875 -4.625 L 18.515625 -4.625 Z M 18.515625 0"/></g></g></g></g></g></g><g clip-path="url(#53d1026e83)"><g transform="matrix(1, 0, 0, 1, 4, 43)"><g clip-path="url(#2e82fc91f9)"><g fill-opacity="1" fill="#545454"><g transform="translate(0.933213, 10.953019)"><g><path d="M 5.3125 -2.015625 C 5.3125 -1.566406 5.203125 -1.179688 4.984375 -0.859375 C 4.765625 -0.546875 4.453125 -0.304688 4.046875 -0.140625 C 3.640625 0.0234375 3.164062 0.109375 2.625 0.109375 C 2.34375 0.109375 2.070312 0.09375 1.8125 0.0625 C 1.5625 0.03125 1.328125 -0.0078125 1.109375 -0.0625 C 0.890625 -0.113281 0.703125 -0.175781 0.546875 -0.25 L 0.546875 -1.09375 C 0.804688 -0.988281 1.117188 -0.890625 1.484375 -0.796875 C 1.859375 -0.703125 2.253906 -0.65625 2.671875 -0.65625 C 3.046875 -0.65625 3.363281 -0.707031 3.625 -0.8125 C 3.894531 -0.914062 4.097656 -1.0625 4.234375 -1.25 C 4.367188 -1.445312 4.4375 -1.679688 4.4375 -1.953125 C 4.4375 -2.203125 4.378906 -2.414062 4.265625 -2.59375 C 4.148438 -2.769531 3.957031 -2.929688 3.6875 -3.078125 C 3.425781 -3.222656 3.066406 -3.375 2.609375 -3.53125 C 2.285156 -3.644531 2 -3.769531 1.75 -3.90625 C 1.507812 -4.039062 1.304688 -4.195312 1.140625 -4.375 C 0.972656 -4.550781 0.847656 -4.75 0.765625 -4.96875 C 0.679688 -5.195312 0.640625 -5.460938 0.640625 -5.765625 C 0.640625 -6.160156 0.742188 -6.503906 0.953125 -6.796875 C 1.160156 -7.085938 1.445312 -7.304688 1.8125 -7.453125 C 2.175781 -7.609375 2.59375 -7.6875 3.0625 -7.6875 C 3.46875 -7.6875 3.84375 -7.648438 4.1875 -7.578125 C 4.53125 -7.503906 4.847656 -7.40625 5.140625 -7.28125 L 4.859375 -6.515625 C 4.585938 -6.628906 4.296875 -6.722656 3.984375 -6.796875 C 3.679688 -6.878906 3.367188 -6.921875 3.046875 -6.921875 C 2.722656 -6.921875 2.445312 -6.867188 2.21875 -6.765625 C 2 -6.671875 1.828125 -6.535156 1.703125 -6.359375 C 1.585938 -6.191406 1.53125 -5.988281 1.53125 -5.75 C 1.53125 -5.488281 1.585938 -5.269531 1.703125 -5.09375 C 1.816406 -4.914062 1.992188 -4.757812 2.234375 -4.625 C 2.484375 -4.488281 2.816406 -4.34375 3.234375 -4.1875 C 3.671875 -4.03125 4.046875 -3.859375 4.359375 -3.671875 C 4.671875 -3.492188 4.90625 -3.273438 5.0625 -3.015625 C 5.226562 -2.753906 5.3125 -2.421875 5.3125 -2.015625 Z M 5.3125 -2.015625"/></g></g></g><g fill-opacity="1" fill="#545454"><g transform="translate(12.894592, 10.953019)"><g><path d="M 5.796875 0 L 4.859375 -2.40625 L 1.828125 -2.40625 L 0.890625 0 L 0 0 L 2.96875 -7.609375 L 3.765625 -7.609375 L 6.703125 0 Z M 4.59375 -3.1875 L 3.703125 -5.578125 C 3.679688 -5.640625 3.644531 -5.738281 3.59375 -5.875 C 3.550781 -6.019531 3.503906 -6.171875 3.453125 -6.328125 C 3.410156 -6.484375 3.375 -6.609375 3.34375 -6.703125 C 3.3125 -6.554688 3.273438 -6.410156 3.234375 -6.265625 C 3.191406 -6.128906 3.148438 -6 3.109375 -5.875 C 3.078125 -5.757812 3.046875 -5.660156 3.015625 -5.578125 L 2.109375 -3.1875 Z M 4.59375 -3.1875"/></g></g></g><g fill-opacity="1" fill="#545454"><g transform="translate(25.74808, 10.953019)"><g><path d="M 3.359375 0 L 2.484375 0 L 2.484375 -6.8125 L 0.09375 -6.8125 L 0.09375 -7.578125 L 5.75 -7.578125 L 5.75 -6.8125 L 3.359375 -6.8125 Z M 3.359375 0"/></g></g></g><g fill-opacity="1" fill="#545454"><g transform="translate(37.735386, 10.953019)"><g><path d="M 6.78125 -7.578125 L 6.78125 -2.671875 C 6.78125 -2.140625 6.671875 -1.664062 6.453125 -1.25 C 6.234375 -0.832031 5.90625 -0.5 5.46875 -0.25 C 5.03125 -0.0078125 4.484375 0.109375 3.828125 0.109375 C 2.890625 0.109375 2.175781 -0.144531 1.6875 -0.65625 C 1.195312 -1.164062 0.953125 -1.847656 0.953125 -2.703125 L 0.953125 -7.578125 L 1.84375 -7.578125 L 1.84375 -2.671875 C 1.84375 -2.023438 2.015625 -1.523438 2.359375 -1.171875 C 2.703125 -0.828125 3.210938 -0.65625 3.890625 -0.65625 C 4.347656 -0.65625 4.722656 -0.738281 5.015625 -0.90625 C 5.316406 -1.070312 5.539062 -1.304688 5.6875 -1.609375 C 5.832031 -1.910156 5.90625 -2.265625 5.90625 -2.671875 L 5.90625 -7.578125 Z M 6.78125 -7.578125"/></g></g></g><g fill-opacity="1" fill="#545454"><g transform="translate(51.615838, 10.953019)"><g/></g></g><g fill-opacity="1" fill="#545454"><g transform="translate(60.511881, 10.953019)"><g><path d="M 3.015625 -7.578125 C 3.992188 -7.578125 4.707031 -7.382812 5.15625 -7 C 5.613281 -6.625 5.84375 -6.082031 5.84375 -5.375 C 5.84375 -5.050781 5.789062 -4.742188 5.6875 -4.453125 C 5.582031 -4.160156 5.410156 -3.90625 5.171875 -3.6875 C 4.929688 -3.46875 4.617188 -3.296875 4.234375 -3.171875 C 3.859375 -3.046875 3.394531 -2.984375 2.84375 -2.984375 L 1.921875 -2.984375 L 1.921875 0 L 1.03125 0 L 1.03125 -7.578125 Z M 2.9375 -6.828125 L 1.921875 -6.828125 L 1.921875 -3.734375 L 2.75 -3.734375 C 3.226562 -3.734375 3.628906 -3.785156 3.953125 -3.890625 C 4.273438 -3.992188 4.515625 -4.160156 4.671875 -4.390625 C 4.835938 -4.628906 4.921875 -4.941406 4.921875 -5.328125 C 4.921875 -5.835938 4.757812 -6.210938 4.4375 -6.453125 C 4.125 -6.703125 3.625 -6.828125 2.9375 -6.828125 Z M 2.9375 -6.828125"/></g></g></g><g fill-opacity="1" fill="#545454"><g transform="translate(73.038603, 10.953019)"><g><path d="M 1.03125 0 L 1.03125 -7.578125 L 1.921875 -7.578125 L 1.921875 -0.78125 L 5.28125 -0.78125 L 5.28125 0 Z M 1.03125 0"/></g></g></g><g fill-opacity="1" fill="#545454"><g transform="translate(84.719901, 10.953019)"><g><path d="M 5.796875 0 L 4.859375 -2.40625 L 1.828125 -2.40625 L 0.890625 0 L 0 0 L 2.96875 -7.609375 L 3.765625 -7.609375 L 6.703125 0 Z M 4.59375 -3.1875 L 3.703125 -5.578125 C 3.679688 -5.640625 3.644531 -5.738281 3.59375 -5.875 C 3.550781 -6.019531 3.503906 -6.171875 3.453125 -6.328125 C 3.410156 -6.484375 3.375 -6.609375 3.34375 -6.703125 C 3.3125 -6.554688 3.273438 -6.410156 3.234375 -6.265625 C 3.191406 -6.128906 3.148438 -6 3.109375 -5.875 C 3.078125 -5.757812 3.046875 -5.660156 3.015625 -5.578125 L 2.109375 -3.1875 Z M 4.59375 -3.1875"/></g></g></g><g fill-opacity="1" fill="#545454"><g transform="translate(97.573389, 10.953019)"><g><path d="M 3.359375 0 L 2.484375 0 L 2.484375 -6.8125 L 0.09375 -6.8125 L 0.09375 -7.578125 L 5.75 -7.578125 L 5.75 -6.8125 L 3.359375 -6.8125 Z M 3.359375 0"/></g></g></g><g fill-opacity="1" fill="#545454"><g transform="translate(109.560696, 10.953019)"><g><path d="M 1.921875 0 L 1.03125 0 L 1.03125 -7.578125 L 5.265625 -7.578125 L 5.265625 -6.8125 L 1.921875 -6.8125 L 1.921875 -4.03125 L 5.0625 -4.03125 L 5.0625 -3.25 L 1.921875 -3.25 Z M 1.921875 0"/></g></g></g><g fill-opacity="1" fill="#545454"><g transform="translate(121.179754, 10.953019)"><g><path d="M 7.609375 -3.796875 C 7.609375 -3.210938 7.535156 -2.679688 7.390625 -2.203125 C 7.242188 -1.722656 7.023438 -1.3125 6.734375 -0.96875 C 6.441406 -0.625 6.078125 -0.359375 5.640625 -0.171875 C 5.210938 0.015625 4.710938 0.109375 4.140625 0.109375 C 3.554688 0.109375 3.046875 0.015625 2.609375 -0.171875 C 2.171875 -0.359375 1.804688 -0.625 1.515625 -0.96875 C 1.222656 -1.320312 1.003906 -1.738281 0.859375 -2.21875 C 0.722656 -2.695312 0.65625 -3.226562 0.65625 -3.8125 C 0.65625 -4.582031 0.78125 -5.257812 1.03125 -5.84375 C 1.289062 -6.4375 1.679688 -6.894531 2.203125 -7.21875 C 2.722656 -7.539062 3.375 -7.703125 4.15625 -7.703125 C 4.90625 -7.703125 5.535156 -7.539062 6.046875 -7.21875 C 6.566406 -6.894531 6.957031 -6.441406 7.21875 -5.859375 C 7.476562 -5.273438 7.609375 -4.585938 7.609375 -3.796875 Z M 1.578125 -3.796875 C 1.578125 -3.160156 1.664062 -2.601562 1.84375 -2.125 C 2.03125 -1.65625 2.3125 -1.289062 2.6875 -1.03125 C 3.070312 -0.78125 3.554688 -0.65625 4.140625 -0.65625 C 4.722656 -0.65625 5.203125 -0.78125 5.578125 -1.03125 C 5.953125 -1.289062 6.226562 -1.65625 6.40625 -2.125 C 6.59375 -2.601562 6.6875 -3.160156 6.6875 -3.796875 C 6.6875 -4.773438 6.476562 -5.539062 6.0625 -6.09375 C 5.65625 -6.644531 5.019531 -6.921875 4.15625 -6.921875 C 3.570312 -6.921875 3.085938 -6.796875 2.703125 -6.546875 C 2.316406 -6.296875 2.03125 -5.9375 1.84375 -5.46875 C 1.664062 -5 1.578125 -4.441406 1.578125 -3.796875 Z M 1.578125 -3.796875"/></g></g></g><g fill-opacity="1" fill="#545454"><g transform="translate(135.578874, 10.953019)"><g><path d="M 3.09375 -7.578125 C 3.707031 -7.578125 4.21875 -7.5 4.625 -7.34375 C 5.03125 -7.195312 5.332031 -6.960938 5.53125 -6.640625 C 5.738281 -6.328125 5.84375 -5.929688 5.84375 -5.453125 C 5.84375 -5.046875 5.769531 -4.707031 5.625 -4.4375 C 5.476562 -4.175781 5.285156 -3.960938 5.046875 -3.796875 C 4.816406 -3.628906 4.566406 -3.5 4.296875 -3.40625 L 6.375 0 L 5.359375 0 L 3.5 -3.171875 L 1.921875 -3.171875 L 1.921875 0 L 1.03125 0 L 1.03125 -7.578125 Z M 3.03125 -6.828125 L 1.921875 -6.828125 L 1.921875 -3.90625 L 3.125 -3.90625 C 3.738281 -3.90625 4.191406 -4.03125 4.484375 -4.28125 C 4.773438 -4.539062 4.921875 -4.914062 4.921875 -5.40625 C 4.921875 -5.914062 4.765625 -6.28125 4.453125 -6.5 C 4.148438 -6.71875 3.675781 -6.828125 3.03125 -6.828125 Z M 3.03125 -6.828125"/></g></g></g><g fill-opacity="1" fill="#545454"><g transform="translate(148.271569, 10.953019)"><g><path d="M 4.375 0 L 1.828125 -6.71875 L 1.78125 -6.71875 C 1.800781 -6.570312 1.816406 -6.394531 1.828125 -6.1875 C 1.835938 -5.988281 1.84375 -5.769531 1.84375 -5.53125 C 1.851562 -5.289062 1.859375 -5.046875 1.859375 -4.796875 L 1.859375 0 L 1.03125 0 L 1.03125 -7.578125 L 2.34375 -7.578125 L 4.75 -1.28125 L 4.78125 -1.28125 L 7.21875 -7.578125 L 8.515625 -7.578125 L 8.515625 0 L 7.640625 0 L 7.640625 -4.859375 C 7.640625 -5.078125 7.644531 -5.300781 7.65625 -5.53125 C 7.664062 -5.757812 7.675781 -5.972656 7.6875 -6.171875 C 7.695312 -6.378906 7.707031 -6.554688 7.71875 -6.703125 L 7.671875 -6.703125 L 5.09375 0 Z M 4.375 0"/></g></g></g><g fill-opacity="1" fill="#545454"><g transform="translate(163.962168, 10.953019)"><g/></g></g><g fill-opacity="1" fill="#545454"><g transform="translate(172.858211, 10.953019)"><g><path d="M 1.03125 -7.578125 L 3.1875 -7.578125 C 4.132812 -7.578125 4.84375 -7.4375 5.3125 -7.15625 C 5.789062 -6.875 6.03125 -6.394531 6.03125 -5.71875 C 6.03125 -5.414062 5.972656 -5.148438 5.859375 -4.921875 C 5.753906 -4.691406 5.59375 -4.5 5.375 -4.34375 C 5.164062 -4.1875 4.90625 -4.082031 4.59375 -4.03125 L 4.59375 -3.96875 C 4.914062 -3.914062 5.207031 -3.820312 5.46875 -3.6875 C 5.726562 -3.550781 5.925781 -3.359375 6.0625 -3.109375 C 6.207031 -2.859375 6.28125 -2.539062 6.28125 -2.15625 C 6.28125 -1.6875 6.171875 -1.289062 5.953125 -0.96875 C 5.742188 -0.65625 5.441406 -0.414062 5.046875 -0.25 C 4.648438 -0.0820312 4.179688 0 3.640625 0 L 1.03125 0 Z M 1.921875 -4.328125 L 3.375 -4.328125 C 4.03125 -4.328125 4.484375 -4.4375 4.734375 -4.65625 C 4.992188 -4.875 5.125 -5.191406 5.125 -5.609375 C 5.125 -6.046875 4.972656 -6.359375 4.671875 -6.546875 C 4.367188 -6.734375 3.890625 -6.828125 3.234375 -6.828125 L 1.921875 -6.828125 Z M 1.921875 -3.59375 L 1.921875 -0.75 L 3.5 -0.75 C 4.175781 -0.75 4.648438 -0.878906 4.921875 -1.140625 C 5.203125 -1.410156 5.34375 -1.769531 5.34375 -2.21875 C 5.34375 -2.507812 5.28125 -2.753906 5.15625 -2.953125 C 5.03125 -3.160156 4.828125 -3.316406 4.546875 -3.421875 C 4.265625 -3.535156 3.890625 -3.59375 3.421875 -3.59375 Z M 1.921875 -3.59375"/></g></g></g><g fill-opacity="1" fill="#545454"><g transform="translate(185.856927, 10.953019)"><g><path d="M 5.265625 0 L 1.03125 0 L 1.03125 -7.578125 L 5.265625 -7.578125 L 5.265625 -6.8125 L 1.921875 -6.8125 L 1.921875 -4.359375 L 5.0625 -4.359375 L 5.0625 -3.578125 L 1.921875 -3.578125 L 1.921875 -0.78125 L 5.265625 -0.78125 Z M 5.265625 0"/></g></g></g><g fill-opacity="1" fill="#545454"><g transform="translate(197.8961, 10.953019)"><g><path d="M 3.09375 -7.578125 C 3.707031 -7.578125 4.21875 -7.5 4.625 -7.34375 C 5.03125 -7.195312 5.332031 -6.960938 5.53125 -6.640625 C 5.738281 -6.328125 5.84375 -5.929688 5.84375 -5.453125 C 5.84375 -5.046875 5.769531 -4.707031 5.625 -4.4375 C 5.476562 -4.175781 5.285156 -3.960938 5.046875 -3.796875 C 4.816406 -3.628906 4.566406 -3.5 4.296875 -3.40625 L 6.375 0 L 5.359375 0 L 3.5 -3.171875 L 1.921875 -3.171875 L 1.921875 0 L 1.03125 0 L 1.03125 -7.578125 Z M 3.03125 -6.828125 L 1.921875 -6.828125 L 1.921875 -3.90625 L 3.125 -3.90625 C 3.738281 -3.90625 4.191406 -4.03125 4.484375 -4.28125 C 4.773438 -4.539062 4.921875 -4.914062 4.921875 -5.40625 C 4.921875 -5.914062 4.765625 -6.28125 4.453125 -6.5 C 4.148438 -6.71875 3.675781 -6.828125 3.03125 -6.828125 Z M 3.03125 -6.828125"/></g></g></g><g fill-opacity="1" fill="#545454"><g transform="translate(210.588796, 10.953019)"><g><path d="M 1.03125 -7.578125 L 3.1875 -7.578125 C 4.132812 -7.578125 4.84375 -7.4375 5.3125 -7.15625 C 5.789062 -6.875 6.03125 -6.394531 6.03125 -5.71875 C 6.03125 -5.414062 5.972656 -5.148438 5.859375 -4.921875 C 5.753906 -4.691406 5.59375 -4.5 5.375 -4.34375 C 5.164062 -4.1875 4.90625 -4.082031 4.59375 -4.03125 L 4.59375 -3.96875 C 4.914062 -3.914062 5.207031 -3.820312 5.46875 -3.6875 C 5.726562 -3.550781 5.925781 -3.359375 6.0625 -3.109375 C 6.207031 -2.859375 6.28125 -2.539062 6.28125 -2.15625 C 6.28125 -1.6875 6.171875 -1.289062 5.953125 -0.96875 C 5.742188 -0.65625 5.441406 -0.414062 5.046875 -0.25 C 4.648438 -0.0820312 4.179688 0 3.640625 0 L 1.03125 0 Z M 1.921875 -4.328125 L 3.375 -4.328125 C 4.03125 -4.328125 4.484375 -4.4375 4.734375 -4.65625 C 4.992188 -4.875 5.125 -5.191406 5.125 -5.609375 C 5.125 -6.046875 4.972656 -6.359375 4.671875 -6.546875 C 4.367188 -6.734375 3.890625 -6.828125 3.234375 -6.828125 L 1.921875 -6.828125 Z M 1.921875 -3.59375 L 1.921875 -0.75 L 3.5 -0.75 C 4.175781 -0.75 4.648438 -0.878906 4.921875 -1.140625 C 5.203125 -1.410156 5.34375 -1.769531 5.34375 -2.21875 C 5.34375 -2.507812 5.28125 -2.753906 5.15625 -2.953125 C 5.03125 -3.160156 4.828125 -3.316406 4.546875 -3.421875 C 4.265625 -3.535156 3.890625 -3.59375 3.421875 -3.59375 Z M 1.921875 -3.59375"/></g></g></g><g fill-opacity="1" fill="#545454"><g transform="translate(223.587512, 10.953019)"><g><path d="M 5.796875 0 L 4.859375 -2.40625 L 1.828125 -2.40625 L 0.890625 0 L 0 0 L 2.96875 -7.609375 L 3.765625 -7.609375 L 6.703125 0 Z M 4.59375 -3.1875 L 3.703125 -5.578125 C 3.679688 -5.640625 3.644531 -5.738281 3.59375 -5.875 C 3.550781 -6.019531 3.503906 -6.171875 3.453125 -6.328125 C 3.410156 -6.484375 3.375 -6.609375 3.34375 -6.703125 C 3.3125 -6.554688 3.273438 -6.410156 3.234375 -6.265625 C 3.191406 -6.128906 3.148438 -6 3.109375 -5.875 C 3.078125 -5.757812 3.046875 -5.660156 3.015625 -5.578125 L 2.109375 -3.1875 Z M 4.59375 -3.1875"/></g></g></g><g fill-opacity="1" fill="#545454"><g transform="translate(236.441, 10.953019)"><g><path d="M 4.28125 -3.96875 L 6.9375 -3.96875 L 6.9375 -0.296875 C 6.53125 -0.160156 6.117188 -0.0625 5.703125 0 C 5.285156 0.0703125 4.816406 0.109375 4.296875 0.109375 C 3.503906 0.109375 2.835938 -0.046875 2.296875 -0.359375 C 1.753906 -0.679688 1.34375 -1.132812 1.0625 -1.71875 C 0.789062 -2.300781 0.65625 -2.992188 0.65625 -3.796875 C 0.65625 -4.578125 0.804688 -5.257812 1.109375 -5.84375 C 1.421875 -6.425781 1.867188 -6.878906 2.453125 -7.203125 C 3.035156 -7.523438 3.742188 -7.6875 4.578125 -7.6875 C 4.992188 -7.6875 5.390625 -7.644531 5.765625 -7.5625 C 6.148438 -7.488281 6.503906 -7.382812 6.828125 -7.25 L 6.484375 -6.484375 C 6.203125 -6.597656 5.894531 -6.695312 5.5625 -6.78125 C 5.226562 -6.875 4.878906 -6.921875 4.515625 -6.921875 C 3.898438 -6.921875 3.367188 -6.789062 2.921875 -6.53125 C 2.484375 -6.28125 2.144531 -5.921875 1.90625 -5.453125 C 1.675781 -4.984375 1.5625 -4.429688 1.5625 -3.796875 C 1.5625 -3.160156 1.660156 -2.609375 1.859375 -2.140625 C 2.066406 -1.671875 2.382812 -1.304688 2.8125 -1.046875 C 3.25 -0.785156 3.8125 -0.65625 4.5 -0.65625 C 4.84375 -0.65625 5.132812 -0.675781 5.375 -0.71875 C 5.625 -0.757812 5.847656 -0.804688 6.046875 -0.859375 L 6.046875 -3.1875 L 4.28125 -3.1875 Z M 4.28125 -3.96875"/></g></g></g><g fill-opacity="1" fill="#545454"><g transform="translate(250.300717, 10.953019)"><g><path d="M 5.796875 0 L 4.859375 -2.40625 L 1.828125 -2.40625 L 0.890625 0 L 0 0 L 2.96875 -7.609375 L 3.765625 -7.609375 L 6.703125 0 Z M 4.59375 -3.1875 L 3.703125 -5.578125 C 3.679688 -5.640625 3.644531 -5.738281 3.59375 -5.875 C 3.550781 -6.019531 3.503906 -6.171875 3.453125 -6.328125 C 3.410156 -6.484375 3.375 -6.609375 3.34375 -6.703125 C 3.3125 -6.554688 3.273438 -6.410156 3.234375 -6.265625 C 3.191406 -6.128906 3.148438 -6 3.109375 -5.875 C 3.078125 -5.757812 3.046875 -5.660156 3.015625 -5.578125 L 2.109375 -3.1875 Z M 4.59375 -3.1875"/></g></g></g><g fill-opacity="1" fill="#545454"><g transform="translate(263.154205, 10.953019)"><g><path d="M 1.03125 0 L 1.03125 -7.578125 L 1.921875 -7.578125 L 1.921875 0 Z M 1.03125 0"/></g></g></g><g fill-opacity="1" fill="#545454"><g transform="translate(272.257716, 10.953019)"><g/></g></g><g fill-opacity="1" fill="#545454"><g transform="translate(281.153759, 10.953019)"><g><path d="M 5.3125 -2.015625 C 5.3125 -1.566406 5.203125 -1.179688 4.984375 -0.859375 C 4.765625 -0.546875 4.453125 -0.304688 4.046875 -0.140625 C 3.640625 0.0234375 3.164062 0.109375 2.625 0.109375 C 2.34375 0.109375 2.070312 0.09375 1.8125 0.0625 C 1.5625 0.03125 1.328125 -0.0078125 1.109375 -0.0625 C 0.890625 -0.113281 0.703125 -0.175781 0.546875 -0.25 L 0.546875 -1.09375 C 0.804688 -0.988281 1.117188 -0.890625 1.484375 -0.796875 C 1.859375 -0.703125 2.253906 -0.65625 2.671875 -0.65625 C 3.046875 -0.65625 3.363281 -0.707031 3.625 -0.8125 C 3.894531 -0.914062 4.097656 -1.0625 4.234375 -1.25 C 4.367188 -1.445312 4.4375 -1.679688 4.4375 -1.953125 C 4.4375 -2.203125 4.378906 -2.414062 4.265625 -2.59375 C 4.148438 -2.769531 3.957031 -2.929688 3.6875 -3.078125 C 3.425781 -3.222656 3.066406 -3.375 2.609375 -3.53125 C 2.285156 -3.644531 2 -3.769531 1.75 -3.90625 C 1.507812 -4.039062 1.304688 -4.195312 1.140625 -4.375 C 0.972656 -4.550781 0.847656 -4.75 0.765625 -4.96875 C 0.679688 -5.195312 0.640625 -5.460938 0.640625 -5.765625 C 0.640625 -6.160156 0.742188 -6.503906 0.953125 -6.796875 C 1.160156 -7.085938 1.445312 -7.304688 1.8125 -7.453125 C 2.175781 -7.609375 2.59375 -7.6875 3.0625 -7.6875 C 3.46875 -7.6875 3.84375 -7.648438 4.1875 -7.578125 C 4.53125 -7.503906 4.847656 -7.40625 5.140625 -7.28125 L 4.859375 -6.515625 C 4.585938 -6.628906 4.296875 -6.722656 3.984375 -6.796875 C 3.679688 -6.878906 3.367188 -6.921875 3.046875 -6.921875 C 2.722656 -6.921875 2.445312 -6.867188 2.21875 -6.765625 C 2 -6.671875 1.828125 -6.535156 1.703125 -6.359375 C 1.585938 -6.191406 1.53125 -5.988281 1.53125 -5.75 C 1.53125 -5.488281 1.585938 -5.269531 1.703125 -5.09375 C 1.816406 -4.914062 1.992188 -4.757812 2.234375 -4.625 C 2.484375 -4.488281 2.816406 -4.34375 3.234375 -4.1875 C 3.671875 -4.03125 4.046875 -3.859375 4.359375 -3.671875 C 4.671875 -3.492188 4.90625 -3.273438 5.0625 -3.015625 C 5.226562 -2.753906 5.3125 -2.421875 5.3125 -2.015625 Z M 5.3125 -2.015625"/></g></g></g><g fill-opacity="1" fill="#545454"><g transform="translate(293.115115, 10.953019)"><g><path d="M 7.609375 -3.796875 C 7.609375 -3.210938 7.535156 -2.679688 7.390625 -2.203125 C 7.242188 -1.722656 7.023438 -1.3125 6.734375 -0.96875 C 6.441406 -0.625 6.078125 -0.359375 5.640625 -0.171875 C 5.210938 0.015625 4.710938 0.109375 4.140625 0.109375 C 3.554688 0.109375 3.046875 0.015625 2.609375 -0.171875 C 2.171875 -0.359375 1.804688 -0.625 1.515625 -0.96875 C 1.222656 -1.320312 1.003906 -1.738281 0.859375 -2.21875 C 0.722656 -2.695312 0.65625 -3.226562 0.65625 -3.8125 C 0.65625 -4.582031 0.78125 -5.257812 1.03125 -5.84375 C 1.289062 -6.4375 1.679688 -6.894531 2.203125 -7.21875 C 2.722656 -7.539062 3.375 -7.703125 4.15625 -7.703125 C 4.90625 -7.703125 5.535156 -7.539062 6.046875 -7.21875 C 6.566406 -6.894531 6.957031 -6.441406 7.21875 -5.859375 C 7.476562 -5.273438 7.609375 -4.585938 7.609375 -3.796875 Z M 1.578125 -3.796875 C 1.578125 -3.160156 1.664062 -2.601562 1.84375 -2.125 C 2.03125 -1.65625 2.3125 -1.289062 2.6875 -1.03125 C 3.070312 -0.78125 3.554688 -0.65625 4.140625 -0.65625 C 4.722656 -0.65625 5.203125 -0.78125 5.578125 -1.03125 C 5.953125 -1.289062 6.226562 -1.65625 6.40625 -2.125 C 6.59375 -2.601562 6.6875 -3.160156 6.6875 -3.796875 C 6.6875 -4.773438 6.476562 -5.539062 6.0625 -6.09375 C 5.65625 -6.644531 5.019531 -6.921875 4.15625 -6.921875 C 3.570312 -6.921875 3.085938 -6.796875 2.703125 -6.546875 C 2.316406 -6.296875 2.03125 -5.9375 1.84375 -5.46875 C 1.664062 -5 1.578125 -4.441406 1.578125 -3.796875 Z M 1.578125 -3.796875"/></g></g></g><g fill-opacity="1" fill="#545454"><g transform="translate(307.514247, 10.953019)"><g><path d="M 1.03125 0 L 1.03125 -7.578125 L 1.921875 -7.578125 L 1.921875 -0.78125 L 5.28125 -0.78125 L 5.28125 0 Z M 1.03125 0"/></g></g></g><g fill-opacity="1" fill="#545454"><g transform="translate(319.195533, 10.953019)"><g><path d="M 6.78125 -7.578125 L 6.78125 -2.671875 C 6.78125 -2.140625 6.671875 -1.664062 6.453125 -1.25 C 6.234375 -0.832031 5.90625 -0.5 5.46875 -0.25 C 5.03125 -0.0078125 4.484375 0.109375 3.828125 0.109375 C 2.890625 0.109375 2.175781 -0.144531 1.6875 -0.65625 C 1.195312 -1.164062 0.953125 -1.847656 0.953125 -2.703125 L 0.953125 -7.578125 L 1.84375 -7.578125 L 1.84375 -2.671875 C 1.84375 -2.023438 2.015625 -1.523438 2.359375 -1.171875 C 2.703125 -0.828125 3.210938 -0.65625 3.890625 -0.65625 C 4.347656 -0.65625 4.722656 -0.738281 5.015625 -0.90625 C 5.316406 -1.070312 5.539062 -1.304688 5.6875 -1.609375 C 5.832031 -1.910156 5.90625 -2.265625 5.90625 -2.671875 L 5.90625 -7.578125 Z M 6.78125 -7.578125"/></g></g></g><g fill-opacity="1" fill="#545454"><g transform="translate(333.075996, 10.953019)"><g><path d="M 5.3125 -2.015625 C 5.3125 -1.566406 5.203125 -1.179688 4.984375 -0.859375 C 4.765625 -0.546875 4.453125 -0.304688 4.046875 -0.140625 C 3.640625 0.0234375 3.164062 0.109375 2.625 0.109375 C 2.34375 0.109375 2.070312 0.09375 1.8125 0.0625 C 1.5625 0.03125 1.328125 -0.0078125 1.109375 -0.0625 C 0.890625 -0.113281 0.703125 -0.175781 0.546875 -0.25 L 0.546875 -1.09375 C 0.804688 -0.988281 1.117188 -0.890625 1.484375 -0.796875 C 1.859375 -0.703125 2.253906 -0.65625 2.671875 -0.65625 C 3.046875 -0.65625 3.363281 -0.707031 3.625 -0.8125 C 3.894531 -0.914062 4.097656 -1.0625 4.234375 -1.25 C 4.367188 -1.445312 4.4375 -1.679688 4.4375 -1.953125 C 4.4375 -2.203125 4.378906 -2.414062 4.265625 -2.59375 C 4.148438 -2.769531 3.957031 -2.929688 3.6875 -3.078125 C 3.425781 -3.222656 3.066406 -3.375 2.609375 -3.53125 C 2.285156 -3.644531 2 -3.769531 1.75 -3.90625 C 1.507812 -4.039062 1.304688 -4.195312 1.140625 -4.375 C 0.972656 -4.550781 0.847656 -4.75 0.765625 -4.96875 C 0.679688 -5.195312 0.640625 -5.460938 0.640625 -5.765625 C 0.640625 -6.160156 0.742188 -6.503906 0.953125 -6.796875 C 1.160156 -7.085938 1.445312 -7.304688 1.8125 -7.453125 C 2.175781 -7.609375 2.59375 -7.6875 3.0625 -7.6875 C 3.46875 -7.6875 3.84375 -7.648438 4.1875 -7.578125 C 4.53125 -7.503906 4.847656 -7.40625 5.140625 -7.28125 L 4.859375 -6.515625 C 4.585938 -6.628906 4.296875 -6.722656 3.984375 -6.796875 C 3.679688 -6.878906 3.367188 -6.921875 3.046875 -6.921875 C 2.722656 -6.921875 2.445312 -6.867188 2.21875 -6.765625 C 2 -6.671875 1.828125 -6.535156 1.703125 -6.359375 C 1.585938 -6.191406 1.53125 -5.988281 1.53125 -5.75 C 1.53125 -5.488281 1.585938 -5.269531 1.703125 -5.09375 C 1.816406 -4.914062 1.992188 -4.757812 2.234375 -4.625 C 2.484375 -4.488281 2.816406 -4.34375 3.234375 -4.1875 C 3.671875 -4.03125 4.046875 -3.859375 4.359375 -3.671875 C 4.671875 -3.492188 4.90625 -3.273438 5.0625 -3.015625 C 5.226562 -2.753906 5.3125 -2.421875 5.3125 -2.015625 Z M 5.3125 -2.015625"/></g></g></g><g fill-opacity="1" fill="#545454"><g transform="translate(345.037375, 10.953019)"><g><path d="M 1.03125 0 L 1.03125 -7.578125 L 1.921875 -7.578125 L 1.921875 0 Z M 1.03125 0"/></g></g></g></g></g></g><g clip-path="url(#793060104c)"><g transform="matrix(1, 0, 0, 1, 337, 21)"><g clip-path="url(#86f839ddf6)"><g fill-opacity="1" fill="#737373"><g transform="translate(0.779505, 16.676656)"><g><path d="M 1.171875 -0.8125 C 1.171875 -1.15625 1.25 -1.414062 1.40625 -1.59375 C 1.5625 -1.769531 1.785156 -1.859375 2.078125 -1.859375 C 2.367188 -1.859375 2.597656 -1.769531 2.765625 -1.59375 C 2.929688 -1.414062 3.015625 -1.15625 3.015625 -0.8125 C 3.015625 -0.476562 2.929688 -0.222656 2.765625 -0.046875 C 2.597656 0.128906 2.367188 0.21875 2.078125 0.21875 C 1.816406 0.21875 1.597656 0.140625 1.421875 -0.015625 C 1.253906 -0.179688 1.171875 -0.445312 1.171875 -0.8125 Z M 1.171875 -0.8125"/></g></g></g><g fill-opacity="1" fill="#737373"><g transform="translate(4.967859, 16.676656)"><g><path d="M 4.71875 0.15625 C 3.5 0.15625 2.554688 -0.21875 1.890625 -0.96875 C 1.222656 -1.71875 0.890625 -2.78125 0.890625 -4.15625 C 0.890625 -5.5625 1.226562 -6.648438 1.90625 -7.421875 C 2.582031 -8.191406 3.546875 -8.578125 4.796875 -8.578125 C 5.203125 -8.578125 5.609375 -8.53125 6.015625 -8.4375 C 6.421875 -8.351562 6.738281 -8.253906 6.96875 -8.140625 L 6.578125 -7.046875 C 6.296875 -7.160156 5.988281 -7.253906 5.65625 -7.328125 C 5.320312 -7.398438 5.023438 -7.4375 4.765625 -7.4375 C 3.054688 -7.4375 2.203125 -6.347656 2.203125 -4.171875 C 2.203125 -3.140625 2.410156 -2.34375 2.828125 -1.78125 C 3.242188 -1.226562 3.863281 -0.953125 4.6875 -0.953125 C 5.382812 -0.953125 6.101562 -1.101562 6.84375 -1.40625 L 6.84375 -0.28125 C 6.28125 0.0078125 5.570312 0.15625 4.71875 0.15625 Z M 4.71875 0.15625"/></g></g></g><g fill-opacity="1" fill="#737373"><g transform="translate(12.46078, 16.676656)"><g><path d="M 8.625 -4.21875 C 8.625 -2.84375 8.273438 -1.769531 7.578125 -1 C 6.890625 -0.226562 5.9375 0.15625 4.71875 0.15625 C 3.96875 0.15625 3.300781 -0.0195312 2.71875 -0.375 C 2.132812 -0.726562 1.679688 -1.234375 1.359375 -1.890625 C 1.046875 -2.554688 0.890625 -3.332031 0.890625 -4.21875 C 0.890625 -5.59375 1.226562 -6.660156 1.90625 -7.421875 C 2.59375 -8.191406 3.546875 -8.578125 4.765625 -8.578125 C 5.941406 -8.578125 6.878906 -8.179688 7.578125 -7.390625 C 8.273438 -6.609375 8.625 -5.550781 8.625 -4.21875 Z M 2.203125 -4.21875 C 2.203125 -3.144531 2.414062 -2.328125 2.84375 -1.765625 C 3.28125 -1.203125 3.914062 -0.921875 4.75 -0.921875 C 5.582031 -0.921875 6.210938 -1.195312 6.640625 -1.75 C 7.078125 -2.3125 7.296875 -3.132812 7.296875 -4.21875 C 7.296875 -5.289062 7.078125 -6.101562 6.640625 -6.65625 C 6.210938 -7.207031 5.578125 -7.484375 4.734375 -7.484375 C 3.898438 -7.484375 3.269531 -7.207031 2.84375 -6.65625 C 2.414062 -6.113281 2.203125 -5.300781 2.203125 -4.21875 Z M 2.203125 -4.21875"/></g></g></g><g fill-opacity="1" fill="#737373"><g transform="translate(21.967183, 16.676656)"><g><path d="M 12.078125 0 L 12.078125 -5.484375 C 12.078125 -6.148438 11.929688 -6.648438 11.640625 -6.984375 C 11.359375 -7.316406 10.914062 -7.484375 10.3125 -7.484375 C 9.519531 -7.484375 8.929688 -7.253906 8.546875 -6.796875 C 8.171875 -6.347656 7.984375 -5.648438 7.984375 -4.703125 L 7.984375 0 L 6.71875 0 L 6.71875 -5.484375 C 6.71875 -6.148438 6.570312 -6.648438 6.28125 -6.984375 C 6 -7.316406 5.550781 -7.484375 4.9375 -7.484375 C 4.132812 -7.484375 3.546875 -7.242188 3.171875 -6.765625 C 2.804688 -6.285156 2.625 -5.503906 2.625 -4.421875 L 2.625 0 L 1.359375 0 L 1.359375 -8.421875 L 2.390625 -8.421875 L 2.59375 -7.265625 L 2.65625 -7.265625 C 2.894531 -7.671875 3.234375 -7.988281 3.671875 -8.21875 C 4.109375 -8.457031 4.597656 -8.578125 5.140625 -8.578125 C 6.460938 -8.578125 7.328125 -8.097656 7.734375 -7.140625 L 7.796875 -7.140625 C 8.046875 -7.585938 8.40625 -7.9375 8.875 -8.1875 C 9.351562 -8.445312 9.898438 -8.578125 10.515625 -8.578125 C 11.460938 -8.578125 12.171875 -8.332031 12.640625 -7.84375 C 13.117188 -7.351562 13.359375 -6.570312 13.359375 -5.5 L 13.359375 0 Z M 12.078125 0"/></g></g></g></g></g></g></g></g></svg>